/* XPM */
static char *_e2eb04dff8a4aa699d0b26c32f6f8a61V87w466yQbW04ur[] = {
/* columns rows colors chars-per-pixel */
"64 68 93 2 ",
"   c #BF3453",
".  c #BE3857",
"X  c #BF3C5A",
"o  c #C03454",
"O  c #C03A56",
"+  c #C1375A",
"@  c #C13C5A",
"#  c #C1415F",
"$  c #C24361",
"%  c #C34A66",
"&  c #C54E69",
"*  c #C84E6A",
"=  c #C5526D",
"-  c #C6586F",
";  c #C75771",
":  c #C65B74",
">  c #CA5C76",
",  c #CA5D78",
"<  c #C76077",
"1  c #C96077",
"2  c #CA647C",
"3  c #C6687D",
"4  c #CA6A7F",
"5  c #CD6B82",
"6  c #CD7186",
"7  c #CD7488",
"8  c #CD7A8C",
"9  c #D2768B",
"0  c #D37D91",
"q  c #CF8695",
"w  c #D38396",
"e  c #D48B9C",
"r  c #D88C9F",
"t  c #D4909F",
"y  c #D58EA0",
"u  c #D494A3",
"i  c #D992A3",
"p  c #D59AA6",
"a  c #D59CA8",
"s  c #DD9CAD",
"d  c #D7A2AF",
"f  c #DEA1AF",
"g  c #DEA3B1",
"h  c #DAACB6",
"j  c #DFAFBB",
"k  c #DBB4BC",
"l  c #E0A5B4",
"z  c #E1A8B5",
"x  c #E1AEBA",
"c  c #E3B1BD",
"v  c #DDB7C1",
"b  c #DCBBC2",
"n  c #E6BBC5",
"m  c #E7BFC8",
"M  c #DEC5CA",
"N  c #DFC8CE",
"B  c #DFCCD1",
"V  c #DFD1D3",
"C  c #EAC5CD",
"Z  c #E2CDD2",
"A  c #E9C9D1",
"S  c #E1D3D6",
"D  c #EED0D6",
"F  c #E2D6D9",
"G  c #E3DBDD",
"H  c #F0D9DE",
"J  c #E2DFE0",
"K  c #E5DFE0",
"L  c #F3DEE3",
"P  c #E3E1E1",
"I  c #E4E3E3",
"U  c #E4E4E3",
"Y  c #E5E3E4",
"T  c #E3E4E5",
"R  c #E4E4E4",
"E  c #F3E5E7",
"W  c #F3E5E8",
"Q  c #F5E6EA",
"!  c #F6E7EB",
"~  c #F3EAED",
"^  c #F7EBEE",
"/  c #F7EFF1",
"(  c #F8EFF1",
")  c #F8F0F2",
"_  c #F8F3F5",
"`  c #F9F4F5",
"'  c #FBF7F8",
"]  c #FCF5F8",
"[  c #FBFAFB",
"{  c #FDFAFA",
"}  c #FCFBFC",
"|  c #FBFCFD",
" . c white",
/* pixels */
"R R R R R R R R R R R R R R R R R R R R R R R R R R R R R R R R  . . . . . . . . . . . . . . . . . . . . . . . . . . . . . . . .",
"R R R R R R R R R R R R R R R R R R R R R R R R R R R R R R R R  . . . . . . . . . . . . . . . . . . . . . . . . . . . . . . . .",
"R R R R R R R R R R R R R R R R R R R R R R R R R R R R R R R R  . . . . . . . . . . . . . . . . . . . . . . . . . . . . . . . .",
"R R R R R R R R R R R R R R R R R R R R R R R R R R R R R R R R  . . . . . . . . . . . . . . . . . . . . . . . . . . . . . . . .",
"R R R R R R R R R R R R R R R R R R R R R R R R R R R R R R R R  . . . . . . . . . . . . . . . . . . . . . . . . . . . . . . . .",
"R R R R R R R R R R R R R R R R R R R R R R R R R R R R R R R R  . . . . . . . . . . . . . . . . . . . . . . . . . . . . . . . .",
"R R R R R R R R R R R R R R R R R R R R R R R R R R R R R R R R  . . . . . . . . . . . . . . . . . . . . . . . . . . . . . . . .",
"R R R R R R R R R R R R R R R R R R R R R R R R R R R R R R R I  . . . . . . . . . . . . . . . . . . . . . . . . . . . . . . . .",
"R R R R R R R R R R R R R R R R R R R R R R R R R R R R R R M X $ Q  . . . . . . . . . . . . . . . . . . . . . . . . . . . . . .",
"R R R R R R R R R R R R R R R R R R R R R R R R R R R R G 1 o       0 [  . . . . . . . . . . . . . . . . . . . . . . . . . . . .",
"R R R R R R R R R R R R R R R R R R R R R R R R R U G 7 o     % #       i [  . . . . . . . . . . . . . . . . . . . . . . . . . .",
"R R R R R R R R R R R R R R R R R R R R R R Y I b -         h R  .g o o     5 H  . . . . . . . . . . . . . . . . . . . . . . . .",
"R R R R R R R R R R R R R R Y R R T R K B u &         X u R R R  . .} i           > x E |  . . . . . . . . . . . . . . . . . . .",
"R R R R R R R R R R R R I 2 1 - % O               = k I R R R R  . . . . .n &               @ = > 2 6  . . . . . . . . . . . . .",
"R R R R R R R R R R R R T                 @ 2 k I R R R R R R R  . . . . . . .{ n 1 O   o              . . . . . . . . . . . . .",
"R R R R R R R R R R R R R o   5 q p k V P R R R R R R R R R R R  . . . . . . . . . . .' Q C g e 4      . . . . . . . . . . . . .",
"R R R R R R R R R R R R R     M R R R R R R R R R R R R R R R R  . . . . . . . . . . . . . . . .x   O  . . . . . . . . . . . . .",
"R R R R R R R R R R R R R     b R R R R R R R R R R R R R R G G ( )  . . . . . . . . . . . . . .g   @  . . . . . . . . . . . . .",
"R R R R R R R R R R R R T     h R R R R R R R G M R R R R R @     +  . . . . . .{ {  . . . . . .i   =  . . . . . . . . . . . . .",
"R R R R R R R R R R R R U X   u R R R R R 7       P R R R R # o s s  . . . ._ =        . . . . .9   1  . . . . . . . . . . . . .",
"R R R R R R R R R R R R R &   7 U R R R R a   6 k U R R R R X O  . . . . .[ O   = > 4  . . . . .>   0  . . . . . . . . . . . . .",
"R R R R R R R R R R R R R 4 o : R R R R R Z   u R R R R R R # o g f  . . .9   c  . . . . . . . .$   l  . . . . . . . . . . . . .",
"R R R R R R R R R R R R R y   $ R R R R R J   = 8 w R R R R X o   O  . . .o $  . . . . . . . . .    A  . . . . . . . . . . . . .",
"R R R R R R R R R R R R R k     R R R R R R O     & R R R R X O ( (  . .` o 5  . . . . . . . . .o   ^  . . . . . . . . . . . . .",
"R R R R R R R R R R R R R F   o G R R R R T &   I T Y R R R X O  . . . . .  $  . . . . . . . .W     {  . . . . . . . . . . . . .",
"R R R R R R R R R R R R R T     M R R R R R q   S G h G R R @ O  .  #  . .1   r /  . . . . . .c   @  . . . . . . . . . . . . . .",
"R R R R R R R R R R R R R Y #   e U R R R R b   h h   b R R 2 <  .* ;  . .] O   f = x  . . . .5   >  . . . . . . . . . . . . . .",
"R R R R R R R R R R R R R U 4   % T R R R R G @ e G k G R R R R  . . . . . . .l ~   5  . . . .O   z  . . . . . . . . . . . . . .",
"R R R R R R R R R R R R R R k     T R R R R U R R R R R R R R R  . . . . . . . . .{ _  . . .`     Q  . . . . . . . . . . . . . .",
"R R R R R R R R R R R R R R G     N R R R R R R R R R R R R R R  . . . . . . . . . . . . . .n o o  . . . . . . . . . . . . . . .",
"R R R R R R R R R R R R R R T @   8 R R R R R R R R R R R R R R  . . . . . . . . . . . . . .>   >  . . . . . . . . . . . . . . .",
"R R R R R R R R R R R R R R R e o O R R R R R R R R R R R R R R  . . . . . . . . . . . . . .    C  . . . . . . . . . . . . . . .",
"R R R R R R R R R R R R R R R F     S R R R R R R R R R R R R R  . . . . . . . . . . . . .A      . . . . . . . . . . . . . . . .",
"R R R R R R R R R R R R R R R R @   6 T R R R R R R R R R R R R  . . . . . . . . . . . . .;   >  . . . . . . . . . . . . . . . .",
"R R R R R R R R R R R R R R R R p   o I R R R R R R R R R R R R  . . . . . . . . . . . .`     D  . . . . . . . . . . . . . . . .",
"R R R R R R R R R R R R R R R T J     d R R R R R R R R R R R R  . . . . . . . . . . . .w   O  . . . . . . . . . . . . . . . . .",
"R R R R R R R R R R R R R R R R R 2 o O R R R R R R R R R R R R  . . . . . . . . . . .{     s  . . . . . . . . . . . . . . . . .",
"R R R R R R R R R R R R R R R R R G     h R R R R R R R R R R R  . . . . . . . . . . .i      . . . . . . . . . . . . . . . . . .",
"R R R R R R R R R R R R R R R R R R :   X Y R R R R R R R R R R  . . . . . . . . . .[     r  . . . . . . . . . . . . . . . . . .",
"R R R R R R R R R R R R R R R R R R G     e R R R R R R R R R R  . . . . . . . . . .7     {  . . . . . . . . . . . . . . . . . .",
"R R R R R R R R R R R R R R R R R R R 8     G R R R R R R R R R  . . . . . . . . .L     h  . . . . . . . . . . . . . . . . . . .",
"R R R R R R R R R R R R R R R R R R R I O   & R R R R R R R R R  . . . . . . . . .@   %  . . . . . . . . . . . . . . . . . . . .",
"R R R R R R R R R R R R R R R R R R R R b     u U R R R R R R R  . . . . . . . .w     Q  . . . . . . . . . . . . . . . . . . . .",
"R R R R R R R R R R R R R R R R R R R R R 4     M R R R R R R R  . . . . . . .m     s  . . . . . . . . . . . . . . . . . . . . .",
"R R R R R R R R R R R R R R R R R R R R R I #     F R R R R R R  . . . . . .L     >  . . . . . . . . . . . . . . . . . . . . . .",
"R R R R R R R R R R R R R R R R R R R R R R G o   X G R R R R R  . . . . .(     @ {  . . . . . . . . . . . . . . . . . . . . . .",
"R R R R R R R R R R R R R R R R R R R R R R T N     @ G R R R R  . . . .^       )  . . . . . . . . . . . . . . . . . . . . . . .",
"R R R R R R R R R R R R R R R R R R R R R R R R b     . S R R R  . . .H   o   ^  . . . . . . . . . . . . . . . . . . . . . . . .",
"R R R R R R R R R R R R R R R R R R R R R R R R R b       k R R  . .x       Q  . . . . . . . . . . . . . . . . . . . . . . . . .",
"R R R R R R R R R R R R R R R R R R R R R R R R R U Z .     6 I [ 1     $ `  . . . . . . . . . . . . . . . . . . . . . . . . . .",
"R R R R R R R R R R R R R R R R R R R R R R R R R R R K &     O       5  . . . . . . . . . . . . . . . . . . . . . . . . . . . .",
"R R R R R R R R R R R R R R R R R R R R R R R R R R R R R u       o n  . . . . . . . . . . . . . . . . . . . . . . . . . . . . .",
"R R R R R R R R R R R R R R R R R R R R R R R R R R R R R R G - 7 {  . . . . . . . . . . . . . . . . . . . . . . . . . . . . . .",
"R R R R R R R R R R R R R R R R R R R R R R R R R R R R R R R R  . . . . . . . . . . . . . . . . . . . . . . . . . . . . . . . .",
"R R R R R R R R R R R R R R R R R R R R R R R R R R R R R R R R  . . . . . . . . . . . . . . . . . . . . . . . . . . . . . . . .",
"R R R R R R R R R R R R R R R R R R R R R R R R R R R R K Y B R ^ { ` )  . . . . . . . . . . . . . . . . . . . . . . . . . . . .",
"R R R R R R R R R R R R R R R R R R R R R R R R R R R R 2 5 v k j 4 9 >  . . . . . . . . . . . . . . . . . . . . . . . . . . . .",
"R R R R R R R R R R R R R R R R R R R R R R R R R R R R ; t > t ^ 0 s c  . . . . . . . . . . . . . . . . . . . . . . . . . . . .",
"R R R R R R R R R R R R R R R R R R R R R R R R R R R R 3 5 5 N : A , w  . . . . . . . . . . . . . . . . . . . . . . . . . . . .",
"R R R R R R R R R R R R R R R R R R R R R R R R R R R R R R R R  . . . . . . . . . . . . . . . . . . . . . . . . . . . . . . . .",
"R R R R R R R R R R R R R R R R R R R R R R R R R R R R R R R R  . . . . . . . . . . . . . . . . . . . . . . . . . . . . . . . .",
"R R R R R R R R R R R R R R R R R R R R R R R R R R R R R R R R  . . . . . . . . . . . . . . . . . . . . . . . . . . . . . . . .",
"R R R R R R R R R R R R R R R R R R R R R R R R R R R R R R R R  . . . . . . . . . . . . . . . . . . . . . . . . . . . . . . . .",
"R R R R R R R R R R R R R R R R R R R R R R R R R R R R R R R R  . . . . . . . . . . . . . . . . . . . . . . . . . . . . . . . .",
"R R R R R R R R R R R R R R R R R R R R R R R R R R R R R R R R  . . . . . . . . . . . . . . . . . . . . . . . . . . . . . . . .",
"R R R R R R R R R R R R R R R R R R R R R R R R R R R R R R R R  . . . . . . . . . . . . . . . . . . . . . . . . . . . . . . . .",
"R R R R R R R R R R R R R R R R R R R R R R R R R R R R R R R R  . . . . . . . . . . . . . . . . . . . . . . . . . . . . . . . .",
"R R R R R R R R R R R R R R R R R R R R R R R R R R R R R R R R  . . . . . . . . . . . . . . . . . . . . . . . . . . . . . . . ."
};
