/* XPM */
static char *_47bfdda22924a70c67abf187a33b5ce4wCLWaHFBqNu0xZ9[] = {
/* columns rows colors chars-per-pixel */
"64 64 239 2 ",
"   c #005E2E",
".  c #015B35",
"X  c #015E39",
"o  c #0D5E3C",
"O  c #075532",
"+  c #195D3D",
"@  c #006435",
"#  c #006A37",
"$  c #01643C",
"%  c #0A633D",
"&  c #016A3D",
"*  c #0A6D3E",
"=  c #12663F",
"-  c #00703C",
";  c #285D44",
":  c #066640",
">  c #0D6441",
",  c #036C42",
"<  c #0B6B43",
"1  c #0C6F48",
"2  c #1B6344",
"3  c #136945",
"4  c #1B6A49",
"5  c #156948",
"6  c #017244",
"7  c #057447",
"8  c #17724B",
"9  c #1B7652",
"0  c #236B4C",
"q  c #276649",
"w  c #267755",
"e  c #367C5B",
"r  c #24714F",
"t  c #3A7D61",
"y  c #46775F",
"u  c #4E7E66",
"i  c #9A010C",
"p  c #940309",
"a  c #8E0517",
"s  c #9B0014",
"d  c #95021C",
"f  c #9B021B",
"g  c #950616",
"h  c #941818",
"j  c #A30006",
"k  c #A4001D",
"l  c #A40616",
"z  c #B3131D",
"x  c #8C0328",
"c  c #940124",
"v  c #9B0125",
"b  c #95032B",
"n  c #9C022C",
"m  c #9C0A2C",
"M  c #9B0E21",
"N  c #9A1528",
"B  c #960532",
"V  c #9D0332",
"C  c #9C0A32",
"Z  c #960837",
"A  c #9C1433",
"S  c #9B1835",
"D  c #8C172F",
"F  c #A30125",
"G  c #A3012C",
"H  c #A9012C",
"J  c #A10A2B",
"K  c #A70627",
"L  c #B20029",
"P  c #A61A2E",
"I  c #A30333",
"U  c #AB0133",
"Y  c #A40A34",
"T  c #A90839",
"R  c #B20233",
"E  c #B10A38",
"W  c #A81738",
"Q  c #B11C20",
"!  c #9C222A",
"~  c #992337",
"^  c #A4213A",
"/  c #B42A2A",
"(  c #AA1F41",
")  c #9B3147",
"_  c #912F46",
"`  c #AB2D4A",
"'  c #A62649",
"]  c #A42F51",
"[  c #AD3B59",
"{  c #AB384C",
"}  c #9D515E",
"|  c #A94757",
" . c #B74D5C",
".. c #AE4F53",
"X. c #A75866",
"o. c #B45C6A",
"O. c #AC526C",
"+. c #986573",
"@. c #A76877",
"#. c #B6687A",
"$. c #B7757E",
"%. c #A86A73",
"&. c #915E6D",
"*. c #C46270",
"=. c #3A8161",
"-. c #478168",
";. c #55876E",
":. c #598A73",
">. c #4D9373",
",. c #658A76",
"<. c #B86B84",
"1. c #A97987",
"2. c #B77686",
"3. c #BA7B90",
"4. c #C6788D",
"5. c #CB788C",
"6. c #679883",
"7. c #7C9689",
"8. c #77A38D",
"9. c #6FA891",
"0. c #829E8F",
"q. c #AD858F",
"w. c #B98687",
"e. c #BB8996",
"r. c #BD929A",
"t. c #AA9499",
"y. c #86A796",
"u. c #8CAE9B",
"i. c #B89CA4",
"p. c #8BB4A1",
"a. c #96B6A5",
"s. c #BCA4A7",
"d. c #A6B3AA",
"f. c #A9BCB2",
"g. c #C38B94",
"h. c #C6889A",
"j. c #C59698",
"k. c #CB8C8D",
"l. c #C99CA6",
"z. c #D294A3",
"x. c #D696A7",
"c. c #C3A9AC",
"v. c #C8A4AA",
"b. c #D6A4AD",
"n. c #D7B8AB",
"m. c #CDACB4",
"M. c #C8A6B3",
"N. c #D7A8B6",
"B. c #CBB1B8",
"V. c #D5B4BB",
"C. c #DDB4BD",
"Z. c #D8B6B7",
"A. c #E6B9BB",
"S. c #90C1AB",
"D. c #AAC9B9",
"F. c #B4C2B8",
"G. c #D6C6BA",
"H. c #DCBDC6",
"J. c #E6BCC7",
"K. c #BBCDC6",
"L. c #BCD3C7",
"P. c #ADD3C6",
"I. c #BFECD7",
"U. c #C6C9C6",
"Y. c #DDC3C6",
"T. c #D9C9C8",
"R. c #C6D8CD",
"E. c #D8DACF",
"W. c #DBCBD3",
"Q. c #D3DDD6",
"!. c #DADAD8",
"~. c #CFDAD2",
"^. c #E5C8C8",
"/. c #E4D5CE",
"(. c #EBCCD3",
"). c #E7C9D3",
"_. c #F3CBD5",
"`. c #EBD4D4",
"'. c #EDD4DA",
"]. c #EBDADB",
"[. c #E7DBD8",
"{. c #F7D9DA",
"}. c #CAE8DA",
"|. c #D4E3DB",
" X c #DBE4DC",
".X c #D4E9DC",
"XX c #CAF1DF",
"oX c #E3E3DE",
"OX c #ECE4DE",
"+X c #F6E2DC",
"@X c #EDD7E2",
"#X c #F4DCE1",
"$X c #FADBE6",
"%X c #F0CFE0",
"&X c #DDECE3",
"*X c #D8E9E2",
"=X c #DAF2E5",
"-X c #D9FDF1",
";X c #E6E5E2",
":X c #EDE4E3",
">X c #EDECE5",
",X c #EEEFEB",
"<X c #E5E8E8",
"1X c #F3E3E4",
"2X c #F4E5EA",
"3X c #FBE4EA",
"4X c #F4EBEC",
"5X c #FCEBEC",
"6X c #FEE5E3",
"7X c #E5F4EB",
"8X c #EBF3EC",
"9X c #E6F6E8",
"0X c #F3F3ED",
"qX c #FBF3ED",
"wX c #F7F5E8",
"eX c #FDEDF2",
"rX c #FAECF7",
"tX c #EDFDF4",
"yX c #EEFFFA",
"uX c #E6F2F4",
"iX c #F5F4F2",
"pX c #FDF4F5",
"aX c #F4FCF5",
"sX c #FCFBF5",
"dX c #FEF6FB",
"fX c #F5FEFC",
"gX c #FFFEFA",
"hX c #FFFBFF",
"jX c #FEFAFD",
"kX c #FAFFFE",
"lX c #FFFFFD",
"zX c #FFFDFF",
"xX c #FCFFFF",
"cX c #FFFEFF",
"vX c white",
"bX c #FEFFFF",
"nX c #FEFDFD",
"mX c #FEFEFE",
"MX c #F0F2FE",
/* pixels */
"vXvXvXvXvXvXvXvXvXvXvXvXvXvXvXvXvXvXvXvXvXvXvXvXvXsXvXvXjXvXkXfXfXkXkXvXjXvXiXvXvXvXvXvXvXvXvXvXvXvXvXvXvXvXvXvXvXvXvXvXvXvXvXvX",
"vXvXvXvXvXvXvXvXvXvXvXvXvXvXvXvXvXvXvXvXvXvXvXvXgXvXvXkXvXpXvXfXvXjXjXvXvXvXvXkXvXvXvXvXvXvXvXvXvXvXvXvXvXvXvXvXvXvXvXvXvXvXvXvX",
"vXvXvXvXvXvXvXvXvXvXvXvXvXvXvXvXvXvXvXvXvXvXvXvXvXvXvXvXiXvXvXpXdXvXaXvXvXpXdXjXvXvXvXvXvXvXvXvXvXvXvXvXvXvXvXvXvXvXvXvXvXvXvXvX",
"vXvXvXvXvXvXvXvXvXvXvXvXvXvXvXvXvXvXvXvXvXvXvXvXvXaXvXjXvXfXpX1.@.jXkXvXjXvXfXkXvXvXvXvXvXvXvXvXvXvXvXvXvXvXvXvXvXvXvXvXvXvXvXvX",
"vXvXvXvXvXvXvXvXvXvXvXvXvXvXvXvXvXvXvXvXvXvXvXvXnXvXkXkXvXjX`.(.].T.kXvXvXvXdXjXvXvXvXvXvXvXvXvXvXvXvXvXvXvXvXvXvXvXvXvXvXvXvXvX",
"vXvXvXvXvXvXvXvXvXvXvXvXvXvXvXvXvXvXvXvXvXvXvXvXvXjXkXfXgXl.m.kXgXC.e.vXfXkXvXfXvXvXvXvXvXvXvXvXvXvXvXvXvXvXvXvXvXvXvXvXvXvXvXvX",
"vXvXvXvXvXvXvXvXvXvXvXvXvXvXvXvXvXvXvXvXvXvXvXvXkXjXvXgX].v.dXsXgXjXV./.jXjXdXvXvXvXvXvXvXvXvXvXvXvXvXvXvXvXvXvXvXvXvXvXvXvXvXvX",
"vXvXvXvXvXvXvXvXvXvXvXvXvXvXvXvXvXvXvXvXvXvXvXvXkXvXdX+.J.gXsXv.l.sXsX(.+.dXkXfXvXvXvXvXvXvXvXvXvXvXvXvXvXvXvXvXvXvXvXvXvXvXvXvX",
"vXjXvXnXkXkXkXvXkXvXvXgXvXaXvXkXkXnXvXvXdXvXjXdXsXeXM.'.kXgX[.J m {.sXjX@Xl.5XgXjXvXvXnXvXvXkXkXvXkXkXvXjXvXvXkXvXkXkXvXvXvXjXvX",
"vXvXvXvXvXkXsXvXvXaXkXkXvXvXvXvXgXsXgXvXyXfXvXfXB.b.qXvXvX$.A G J C <.kXgXqXB.N.fXvXfXfXdXjXpXvXvXvXvXvXkXkXkXvXvXiXaXvXvXvXvXvX",
"vXpXvXvXkXvXvXpXvXvXvXkXvXjXpXvXyXjXdXvXgXqX{.%.s.kXdX7Xc.R v E V G c z.iXdXfXB.o.{.wXgXvXjXdXkXjXvXnXkXvXvXvXvXjXvXvXgXvXvXnXvX",
"vXvXjXvXvXsXjXjXnXvXjXvXkXkXvXjXjXfXfX(.2.z.{.aXgXfX#X^ F V I x H C b I A `.sXjXtX1Xz.2.^.fXfXvXjXvXkXkXvXvXvXjXjXvXpXvXvXjXvXvX",
"kXvXvXvXsXvX4Xt.V.(.'.2X2X1X2X].^.w.@.v.<XvXjXfX4Xj.d v b K H V A c v v v k g.0XkXvXkX<Xc.%.w.^.].1X1X2X2X#X'.V.t.4XvXnXvXvXvXkX",
"nXvXkXvXvXgX4X#XeX4X8X,X1X5X0X7X2XjXkXkXkXfX{.` E v L n m J v E v G F [ W G L D ` {.aXvXvXvXjX4X7X4X5X4X>X<XsXeX2XeXvXvXvXvXvXvX",
"vXvXvXvXkXjXpX3XfXaXkXgXsXsXgXgXfXaXpX1X^. .a a J V I D J I T A E #.V.gX[.S J n g s | ^.2XdXdXvXgXgXsXgXgXiXaXfX2XpXnXkXvXvXnXvX",
"vXvXvXkXvXvX4X1XgXb.O.4.g.r.4.[ P P A m G T n U V v ( pX5X#XOXpXaXkXgXpXjXtX^.H G n I G b S P P | 4.r.g.5.o.b.gX4X4XvXvXkXvXvXvX",
"vXvXgXvXvXvX2X4XvXm.p n b v F V v b I G n V T n F ) {.jXkXgXgXdXaX{.j.J Z.sXdX(.| J F I I G V n F V G v v a x.gX4X2XvXvXvXvXvXkX",
"vXvXgXvXvXvX4X1XvXV.l n n n G V Y G n C I n b G Z H f n.yXdX`.h Y C Y b C /.fX<Xo.c G v v I V Y G V I G n f b.gX4X4XvXvXvXvXvXvX",
"vXvXvXvXvXvX4X].vXT.l V G n n I V F I C c H U G Z T Z [ vXdX#Xb n F s K Z.gX{.M F H Y V I v b G G B I G n k H.kX1X4XvXvXvXvXvXvX",
"vXvXvXvXvXkX0XY.vXoXj V G n V I I Y v R I c v v v k f ] m.].4X$X<X;X'.#XsXZ.J g c I v n b Y V U G x V G V l '.aX(.8XvXvXvXvXjXvX",
"vXvXkXvXvXkXiXb.vXiXi I G V V I U n n x G R ~ T.w.w.G.tXdXgXtXaX4XdXuXdXjXW.T.z./.5.x V E G v n H B V G I i 4XgXC.iXkXvXvXkXjXvX",
"vXvXkXvXjXfXgXg.vXvX! I n G V I v V C R G 2.wXsXjXvXiXh.l.$X2XA P M ! wX3X@XvXsXwX| n v v H n n G V I G I M pXvXz.gXfXjXkXkXjXvX",
"vXjXkXvXjXkXgX%.jXvX..V n H n V I I b G G | s.jXdXJ.~ a [.dX>X/ Q h W n.A.G.gX{. .v F n I G I I v I I n V | vXvX$.gXfXjXvXkXvXvX",
"vXvXkXvXjXfXgXX.jXvXk.V b R G V I c T n I U D 5XoXv.J.@X(.aX8XdXjXkXaXiXW.dXeX_ d g v b G n b I n G n n I $.vXvX} gXfXjXvXkXvXvX",
"vXvXvXvXkXvXdXi.`.jXV.v Z I v I G n F T n d Y V.^.kXfX3XW.aXpXJ.(.{.1X4X).fXW.dX[.l.g.$.F H n I I B n v U B.jX$Xq.jXvXfXvXvXjXvX",
"vXvXvXvXvXvXvXW.c.kX5Xv V n G U F C Z G d g.2XsXdXv.z l ^.aX3XA v x Y G o.sXe.qXgXgXsXC.] T c G I I n U n @XfXc.Y.jXvXkXvXvXvXkX",
"kXvXvXvXvXvXvXdX@.jXwXY G U G x m n I C #.aXvX(.^.E.p s ).vXqXl K G Z f  .pX4.o.rXjX[.c F m n Z b Y H F T ,XgX2.pXvXkXvXvXvXvXkX",
"kXvXvXvXvXvXvXvX1.gXiXW n U c V v G G ].jX+X[ 3XdX).i p Y.kXnXH.T.2X@XW W fX@XF ` sXl.V V v n L I n G c W tXgX2.vXaXvXvXvXjXvXkX",
"kXnXvXvXvXvXkXkXH.5XpX` b Y G U G J e.gXsXW m 4XvX).i g ^.vXvXeXwXdXdX| k h.:XW A 0X{.~ P ( n Z R v b Y ' dX5XN.kXaXvXvXvXjXvXvX",
"vXnXvXvXnXvXvXvX;X9XgXm.a b U n v Y.kX5X) C V OXgXG.j i %XaX6XM ^ sXpXD d T C F J X.+X>XiX`.v v n U b v v.gXiXOXkXvXvXjXvXvXvXvX",
"vXvXvXvXaXkXvXvXiX^.gXeXm G I v W aXkX#.v n T 6XdXH.h h l.J.m.h.v.sXE.$.| v H F H v v  .o.) n U n I v v 2XaX^.4XvXvXvXjXvXvXvXvX",
"vXvXpXvXkXkXvXjXvXo.gXkX+X6X<X+XeXgXsX2X2X].$XfXgXMXiXjXvXsXvXkXvXvXfXdXdX2X;X2X+X:XoX$X3X#X;X#X$X X6X1XgXvX2.fXvXvXvXvXvXkXvXgX",
"vXvXvXvXvXvXvXvXjXq.1XfXjXQ.=XsXvXvXvX*X|.XX.XdXkXsX9X X}.K.U.a.|.iX}.iXpXXX|.=X X*X X|.&X;X|. X X X XgXkX4X@.vXvXvXvXvXvXvXvXvX",
"vXvXvXvXvXvXvXvXsXdX#.fXiX5 , r jXpX-X3 @ & 2 tXjX0.o O Q.vX&XX w jXy 4 -.o 1 @ $ , $ X 6.u.t X $ 6 1 4XgX2.1XfXvXvXvXvXvXvXvXvX",
"vXvXvXvXvXvXvXvXkXfXh.kXsXw & @ 8.gXfX0 < # 8 8XjX;.-   oXdX&X, 1 0XK.$ & & X 1 @ 7 $ a.gXgXgX=Xu.& r gXsX5.vXvXvXvXvXvXvXvXvXvX",
"vXvXvXvXvXvXvXvXvXtX1X1XfXR.O < & =XqX,Xu @ = sXfXq @    XkX*X, & q y.8 & < , , , 8.=XkXtXF.iXu.% . ~.sX2X:XyXjXvXvXvXvXvXvXvXvX",
"vXvXvXvXvXvXvXvXvXjXpXx.gXaX:.@ $ -.7XgX>X0 w gXyX+ * &  XfX*X, - & % & & % & 4 u.gXsXqX,.O t 8.# -.aXyXV.,XkXvXvXvXvXvXvXvXvXvX",
"vXvXvXvXvXvXvXvXjXvXkXe._.gX*X, & & 0 7XsXtXD.vXaXq # @ 8XjX7X@ o 6 X & < p.&XgXfXgXkX:.. 6 & , 2 :XkX:X1.dXvXvXvXvXvXvXvXvXvXvX",
"vXvXvXvXvXvXvXvXvXyXfX4X@.jXpX0 & & $ -.=XkXU.jXaXy.e q Q.iXQ.2 ; =.y.R.aXgXjX8XiX.XXXq , & 6 & 8 4XvX4.3XvXkXvXvXvXvXvXvXvXvXvX",
"vXvXvXvXvXvXvXvXjXkXdXkX).,XvXL.  & % & & ;.!.kXuXjXgXgXtXfXpXsXaXgXkXvX4X6.1 3 : , > , & < @ o R.vX7XJ.kXkXvXvXvXvXvXvXvXvXvXvX",
"vXvXvXvXvXvXvXvXvXvXkXfX3XC.kXgX6.$ , & , 1 jXvX[.8XaXtXkXnXkX0XaXoXQ.6.X 6 & % & < & , , & & ;.gXkXJ.3XyXvXjXgXvXvXvXvXvXvXvXvX",
"vXvXvXvXvXvXvXvXvXvXvXaXvXc.J.kXiX5 6 . & p.vXkX9.3 3 ,.|.|.L.q < : : , , , & & , & , , o , 9 8XkX(.q.vXvXpXvXvXvXvXvXvXvXvXvXvX",
"vXvXvXvXvXvXvXvXkXnXvXvXfXvX@.sXkX-.@ 6 $ =XsXvX:.* $ a.gXkX=X@ , & & , , @ & , : & , 6 & & e tXgX@.gXfXjXvXvXkXvXvXvXvXvXvXvXvX",
"vXvXvXvXvXvXvXvXvXvXvXjXvXaX3X_.vXfX,.& % D.sXjXgX.Xq <XvXvXsX8 @ < , @ , , 6 & & , , & @ ,.gXjX{.#XiXvXpXfXjXvXvXvXvXvXvXvXvXvX",
"vXvXvXvXvXvXvXvXkXvXvXkXvXvXaX&.3XvX,X3 & & w e f.gX}.tXjXvXdX6.& & & : < X , & $ , & 6 : I.gX0X+.fXgXdXkXvXvXvXvXvXvXvXvXvXvXvX",
"vXvXvXvXvXvXvXvXvXkXdXkXkXjXvXdXe.0XgXd.. , & X $ 7.K.kXvXvXjXkXS.o $ & & : % , , & $ O a.gXpX@.eXvXvXkXfXjXkXvXvXvXvXvXvXvXvXvX",
"vXvXvXvXvXvXvXvXvXfXvXvX8XvXjXjX`.!.fXsX9.< & 7 & >.tX4XL.P.&XaXfX:.8 & & 6 & & $ & < 6.gXaXoX'.jXjXvXkXvXjXkXjXvXvXvXvXvXvXvXvX",
"vXvXvXvXvXvXvXvXjXkXyXjXjXyXvXvXgXx.V.kXkX4 & , % @ ,.>Xy @ > e f.kXiX|.S.2 < , % - 4 gXgXY.g.jXvXkXfXdXjXfXaXjXvXvXvXvXvXvXvXvX",
"vXvXvXvXvXvXvXvXvXvXvXvXvXvXvXvXfXvX3.pXjX&X1 % & & @ D.}., , $ @ & y ,.w , $ , : 1 |.jXpX2.vXfXvXvXvXvXvXvXvXvXvXvXvXvXvXvXvXvX",
"vXvXvXvXvXvXvXvXvXvXvXvXvXvXvXvXvXvXfX@.gXaX9X= & & $ , < . , , & 3 < & & & & $ > 7XfXgX@.tXjXvXvXvXvXvXvXvXvXvXvXvXvXvXvXvXvXvX",
"vXvXvXvXvXvXvXvXvXvXvXvXvXvXvXvXjXvXfX!.<.gXgXD.+ 6 , & , < & & , $ & , , , , 1 a.pXgX4.!.fXjXvXvXvXvXvXvXvXvXvXvXvXvXvXvXvXvXvX",
"vXvXvXvXvXvXvXvXvXvXvXvXvXvXvXvXjXvXkXjXpXh.sXsX4X3 # , $ , 7 > % > 6 & & , o &XgXjXx.:XjXfXvXvXvXvXvXvXvXvXvXvXvXvXvXvXvXvXvXvX",
"vXvXvXvXvXvXvXvXvXvXvXvXvXvXvXvXjXfXdXvXsXc.l.jXgXF.3 7 : , & % , & , , , 2 f.gXgXb.s.vXvXjXfXjXvXvXvXvXvXvXvXvXvXvXvXvXvXvXvXvX",
"vXvXvXvXvXvXvXvXvXvXvXvXvXvXvXvXvXvXvXvXjXvX!.r.kXfX0Xq & , 6 & & 6 & : ; =XaXgXv.;XgXpXvXvXvXvXvXvXvXvXvXvXvXvXvXvXvXvXvXvXvXvX",
"vXvXvXvXvXvXvXvXvXvXvXvXvXvXvXvXvXkXnXdXvXvXvXm.i.gXjX|.9 $ 3 & & > @ 8 ~.gXfXl.c.kXnXvXjXjXkXvXvXvXvXvXvXvXvXvXvXvXvXvXvXvXvXvX",
"vXvXvXvXvXvXvXvXvXvXvXvXvXvXvXvXkXvXvXvXgXkXdXvX3X2.gXsXsX>.O , & @ ;.sXyXjX3.2XgXjXvXnXvXvXjXfXvXvXvXvXvXvXvXvXvXvXvXvXvXvXvXvX",
"vXvXvXvXvXvXvXvXvXvXvXvXvXvXvXvXvXvXvXvXvXvXvXvXgX'.@.pXdXvX9.o o 9.gXdXsX@.'.gXvXvXvXvXvXvXvXvXvXvXvXvXvXvXvXvXvXvXvXvXvXvXvXvX",
"vXvXvXvXvXvXvXvXvXvXvXvXvXvXvXvXvXvXvXvXvXvXvXvXjXkXvX<.W.fXfXL.L.yXgXE.#.iXgXgXvXvXvXvXvXvXvXvXvXvXvXvXvXvXvXvXvXvXvXvXvXvXvXvX",
"vXvXvXvXvXvXvXvXvXvXvXvXvXvXvXvXvXvXvXvXvXvXvXvXkXvXfXvXe.(.gXjXjXjX[.4.kXfXjXkXvXvXvXvXvXvXvXvXvXvXvXvXvXvXvXvXvXvXvXvXvXvXvXvX",
"vXvXvXvXvXvXvXvXvXvXvXvXvXvXvXvXvXvXvXvXvXvXvXvXkXkXkXvXpX'.X.aXgX@.^.pXvXvXkXkXvXvXvXvXvXvXvXvXvXvXvXvXvXvXvXvXvXvXvXvXvXvXvXvX",
"vXvXvXvXvXvXvXvXvXvXvXvXvXvXvXvXvXvXvXvXvXvXvXvXkXkXdXvXfXjX<Xe.j.;XjXfXjXvXdXfXvXvXvXvXvXvXvXvXvXvXvXvXvXvXvXvXvXvXvXvXvXvXvXvX",
"vXvXvXvXvXvXvXvXvXvXvXvXvXvXvXvXvXvXvXvXvXvXvXvXvXvXvXjXfXfXkXeXeXkXtXgXvXdXfXvXvXvXvXvXvXvXvXvXvXvXvXvXvXvXvXvXvXvXvXvXvXvXvXvX",
"vXvXvXvXvXvXvXvXvXvXvXvXvXvXvXvXvXvXvXvXvXvXvXvXdXfXdXfXvXvXvXkXkXjXvXvXkXvXvXjXvXvXvXvXvXvXvXvXvXvXvXvXvXvXvXvXvXvXvXvXvXvXvXvX",
"vXvXvXvXvXvXvXvXvXvXvXvXvXvXvXvXvXvXvXvXvXvXvXvXkXdXfXvXjXvXvXkXkXvXvXdXvXfXjXkXvXvXvXvXvXvXvXvXvXvXvXvXvXvXvXvXvXvXvXvXvXvXvXvX"
};
