/* XPM */
static char *d8caac5d155c4845ffb1fbb288365c25c8ACxW9B6EKNSn30[] = {
/* columns rows colors chars-per-pixel */
"64 64 234 2 ",
"   c #040411",
".  c #2F1315",
"X  c #3B1716",
"o  c #1C2B2D",
"O  c #153433",
"+  c #1B3434",
"@  c #153837",
"#  c #1A3A36",
"$  c #163B3C",
"%  c #1A3C3C",
"&  c #2D2F2E",
"*  c #3B2829",
"=  c #263C3C",
"-  c #363839",
";  c #48181B",
":  c #57181D",
">  c #551A1D",
",  c #60181F",
"<  c #51201D",
"1  c #4D1D22",
"2  c #541C22",
"3  c #5B1D24",
"4  c #5A1D28",
"5  c #671F26",
"6  c #492528",
"7  c #5D2225",
"8  c #56262B",
"9  c #5C222A",
"0  c #572A32",
"q  c #44393D",
"w  c #56363A",
"e  c #652729",
"r  c #65242B",
"t  c #6B252C",
"y  c #6B292C",
"u  c #722E2E",
"i  c #642C33",
"p  c #692A33",
"a  c #732C33",
"s  c #782C36",
"d  c #663539",
"f  c #79343B",
"g  c #17403F",
"h  c #1A413E",
"j  c #1B3E40",
"k  c #3A3D45",
"l  c #433B43",
"z  c #473E48",
"x  c #5B3D41",
"c  c #6B3B44",
"v  c #7E3740",
"b  c #1D4443",
"n  c #1D4B49",
"m  c #1F524F",
"M  c #224445",
"N  c #244647",
"B  c #244B4B",
"V  c #2B4C4C",
"C  c #3D424B",
"Z  c #3A4649",
"A  c #334A4B",
"S  c #27514E",
"D  c #324C52",
"F  c #275653",
"G  c #2C5C5A",
"H  c #385657",
"J  c #355B5B",
"K  c #31615C",
"L  c #376663",
"P  c #32706B",
"I  c #42434B",
"U  c #474749",
"Y  c #554347",
"T  c #52534D",
"R  c #484B52",
"E  c #495557",
"W  c #575659",
"Q  c #67474A",
"!  c #764647",
"~  c #664D55",
"^  c #764D57",
"/  c #635558",
"(  c #785859",
")  c #5D6756",
"_  c #7A605D",
"`  c #455F62",
"'  c #5A5D62",
"]  c #715D63",
"[  c #4B696A",
"{  c #536866",
"}  c #5C7675",
"|  c #666568",
" . c #786565",
".. c #677778",
"X. c #747171",
"o. c #777675",
"O. c #842F3A",
"+. c #87323C",
"@. c #833B42",
"#. c #825A5B",
"$. c #875B63",
"%. c #866568",
"&. c #8D706B",
"*. c #89757A",
"=. c #977979",
"-. c #A1777B",
";. c #B5787E",
":. c #6F837C",
">. c #87877C",
",. c #968A76",
"<. c #96917D",
"1. c #A28E7C",
"2. c #717D82",
"3. c #A37F85",
"4. c #6C8688",
"5. c #758488",
"6. c #7C9394",
"7. c #8A8986",
"8. c #9A8589",
"9. c #999889",
"0. c #8F9191",
"q. c #979597",
"w. c #A7888A",
"e. c #B48388",
"r. c #A49383",
"t. c #B6988C",
"y. c #A48D91",
"u. c #A98D96",
"i. c #B88D95",
"p. c #A89498",
"a. c #B49395",
"s. c #B5939A",
"d. c #BA949B",
"f. c #B5999D",
"g. c #BC999D",
"h. c #9EA288",
"j. c #9AA49B",
"k. c #A7A48B",
"l. c #BAAF8C",
"z. c #BCB48F",
"x. c #BFBA8D",
"c. c #A8A596",
"v. c #B6AD97",
"b. c #BDB394",
"n. c #B9B697",
"m. c #BDB49A",
"M. c #8E9FA0",
"N. c #AB9CA2",
"B. c #B59AA2",
"V. c #BB9BA2",
"C. c #97A4A8",
"Z. c #93AAAB",
"A. c #ABA9A8",
"S. c #B9A7A9",
"D. c #B8B5A4",
"F. c #BAABB3",
"G. c #A8B4B0",
"H. c #B9B7B7",
"J. c #C6979A",
"K. c #C2939C",
"L. c #C5B091",
"P. c #C1B795",
"I. c #C4BB99",
"U. c #C19AA2",
"Y. c #C6A6AA",
"T. c #D3ACB2",
"R. c #C9B8BA",
"E. c #D8B5BA",
"W. c #E7B7BB",
"Q. c #ECBBBD",
"!. c #F1B7BD",
"~. c #F1BCBF",
"^. c #C9C29D",
"/. c #C8C7A6",
"(. c #D4CBA4",
"). c #DBD4AB",
"_. c #C2C3B9",
"`. c #D7D7BB",
"'. c #F3D9BD",
"]. c #EBE6B6",
"[. c #F1E9BB",
"{. c #B6BCC4",
"}. c #CDBDC4",
"|. c #DABBC2",
" X c #E5BDC3",
".X c #EDBDC3",
"XX c #F1BCC3",
"oX c #B7C4C7",
"OX c #BDCFD6",
"+X c #C2C3C4",
"@X c #C7C7C6",
"#X c #CCCCCD",
"$X c #D8C7C9",
"%X c #CBD2CE",
"&X c #D7D6C9",
"*X c #DCCDD3",
"=X c #C8D6D8",
"-X c #D4D3D3",
";X c #DCD3D5",
":X c #D8D8DA",
">X c #DCDCDC",
",X c #EAC3C5",
"<X c #F3C0C7",
"1X c #E2CDD3",
"2X c #E3D7DC",
"3X c #E2DADD",
"4X c #DDE0DE",
"5X c #EAE7C9",
"6X c #E7E4D9",
"7X c #D4D9E4",
"8X c #DDDDE2",
"9X c #EADEE4",
"0X c #F0DFE7",
"qX c #DCE1E4",
"wX c #D8E4E5",
"eX c #E3E3E4",
"rX c #EDEBE4",
"tX c #E7E7E9",
"yX c #E5E5EA",
"uX c #ECECEC",
"iX c #F3E6E9",
"pX c #F5F5EC",
"aX c #E5EEF1",
"sX c #EEEDF1",
"dX c #F0EDF0",
"fX c #ECF2F5",
"gX c #F6F6F6",
"hX c #FAF5F5",
"jX c #FCFCF6",
"kX c #F6F5F8",
"lX c #FCF7FA",
"zX c #F6FAFA",
"xX c #FDFDFD",
"cX c white",
/* pixels */
"cXcXcXcXcXcXcXcXcXcXcXcXcXcXcXcXcXcXcXcXcXcXcXcXcXcXcXcXcXcXcXcXcXcXcXcXcXcXcXcXcXcXcXcXcXcXcXcXcXcXcXcXcXcXcXcXcXcXcXcXcXcXcXcX",
"cXcXcXcXcXcXcXcXcXcXcXcXcXcXcXcXcXcXcXcXcXcXcXcXcXcXcXcXcXcXcXcXcXcXcXcXcXcXlXeXuXcXcXcXcXcXcXcXcXcXcXcXcXcXcXcXcXcXcXcXcXcXcXcX",
"cXcXcXcXcXcXcXcXcXcXcXcXcXcXcXcXcXcXcXcXcXcXcXcXcXcXcXcXcXcXcXcXcXcXcXgXeXeXeXeXeXeX:XlXcXcXcXcXcXcXcXcXcXcXcXcXcXcXcXcXcXcXcXcX",
"cXcXcXcXcXcXcXcXcXcXcXcXcXcXcXcXcXcXcXcXcXcXcXcXcXcXcXcXcXcXeXcXcXcX>XeXeXuXuXuXuXeXeX-XuXcXcXcXcXcXcXcXcXcXcXcXcXcXcXcXcXcXcXcX",
"cXcXcXcXcXcXcXcXcXcXcXcXcXcXcXcXcXcXcXcXcXcXcXcXcXcXcXcXcXcXT W uX>X3X*Xy.1XuXuXsXuXeX>X:X>XcXcXcXcXcXcXcXcXcXcXcXcXcXcXcXcXcXcX",
"cXcXcXcXcXcXcXcXcXcXcXcXcXcXcXcXcXcXcXcXcXcXcXcXcXcXcXcXcXcXU W q.3XA.$X$X( $XuXsXuXeX:X>X-XdXdXq.R - W ..| lXcXcXcXcXcXcXcXcXcX",
"cXcXcXcXcXcXcXcXcXcXcXcXcXcXcXcXcXcXcXcXcXcXcXcXcXcXcXcXcXcX& k :X>XA.%XH.R.uXaXsXuXeX:X>X-X{.k Z C I I z I lXcXcXcXcXcXcXcXcXcX",
"cXcXcXcXcXcXcXcXcXcXcXcXcXcXcXcXcXcXcXcXcXcXcXcXcXcXcXcXcXcXW - >X4XG.j.j.tXuXaXuXeXeX:X-X-X+XU - - T U - eXcXcXcXcXcXcXcXcXcXcX",
"cXcXcXcXcXcXcXcXcXcXcXcXcXcXcXcXcXcXcXcXcXcXcXcXcXcXcXcXcXcXeX| 8XeX-X_.eXsXsXaXtXeXeX-X-X@X+X9.m.P.n.<.@XcXlXcXcXcXcXcXcXcXcXcX",
"cXcXcXcXcXcXcXcXcXcXcXcXcXcXcXcXcXcXcXcXcXcXcXcXcXcXcXcXcXcXcX#X>X4XtXtXtXtXtXtXeXtX8X:X-X#X+XA.v.n.0.uXcXcXcXcXcXcXcXcXcXcXcXcX",
"cXcXcXcXcXcXcXcXcXcXcXcXcXcXcXcXcXcXcXcXcXcXcXcXcXcXcXcXcXcXcX#X@X7.7.H.eXeXeXtXtXtXeX-X#X@XH.q.>.&XcXlXcXcXcXcXcXcXcXcXcXcXcXcX",
"cXcXcXcXcXcXcXcXcXcXcXcXcXcXcXcXcXcXcXcXcXcXcXcXcXcXcXcXcXlXtX| :.j.>X:X8XeXtXeX8XqX-X-X%X#XH.tXcXcXcXcXcXcXcXcXcXcXcXcXcXcXcXcX",
"cXcXcXcXcXcXcXcXcXcXcXcXcXcXcXcXcXcXcXcXcXcXcXcXcXcXcXlXiXY 8.lXF.c.p.3X9XeX>X8XeX3X;XY R ..A.kXcXcXcXcXcXcXcXcXcXcXcXcXcXcXcXcX",
"cXcXcXcXcXcXcXcXcXcXcXcXcXcXcXcXcXcXcXcXcXcXcXcXcXcXcXcX*.*XlXuXW. Xe.|.$X;X>X>X>X;X|.~ I C C tXcXcXcXcXcXcXcXcXcXcXcXcXcXcXcXcX",
"cXcXcXcXcXcXcXcXcXcXcXcXcXcXcXcXcXcXcXcXcXcXcXcXcXcXcXzXlX-X& T Q ,XXX.X.X8.o 5.gXrX!.p.C C k 0.cXcXcXcXcXcXcXcXcXcXcXcXcXcXcXcX",
"cXcXcXcXcXcXcXcXcXcXcXcXcXcXcXcXcXcXcXcXcXcXcXcXcXcXcXcX}.R.* * %.,X,X,XE.8.  2.kXiX!.|.k C C U cXcXcXcXcXcXcXcXcXcXcXcXcXcXcXcX",
"cXcXcXcXcXcXcXcXcXcXcXcXcXcXcXcXcXcXcXcXcXdXlXcXcXcXcXlXE.<X.X.X.XXXXX~.Q.W.E.T.T.E..X Xl C k R sXcXlXlXlXgXlXcXcXcXcXcXcXcXcXcX",
"cXcXcXcXcXcXcXcXcXcXcXcXcXcXcXcXcXcXcXcXcX| U G.I cXgXgXW.~.XXXXXXXXXX~.~.~.!.XX.XQ.Q. Xq C C I #XgXgXcX0.X.gXcXcXcXcXcXcXcXcXcX",
"cXcXcXcXcXcXcXcXcXcXcXcXcXcXcXcXcXcXcXcXcX- - - - uXC.uXy. X.X X<X<X.XQ.,Xi.<XXX.X.XQ.,Xq C I C G.4.gXT I W | 0.G.cXcXcXcXcXcXcX",
"cXcXcXcXcXcXcXcXcXcXcXcXcXcXcXcXcXcXcXcXcX& & *.F.tXN A 7.i.i.( #.=.w.&.( w..XXX.X.X~.Q.l C C 5.J J sXI C C I W G.cXcXcXcXcXcXcX",
"cXcXcXcXcXcXcXcXcXcXcXcXcXcXcXcXcXcXcXcXcX& p.d.0XM.N h k V.d.( _ ( _ ^ %.w.<XXXXXXX.X Xl C } J F L {.C.C I C W lXcXcXcXcXcXcXcX",
"cXcXcXcXcXcXcXcXcXcXcXcXcXcXcXcXcXcXcXcXcX~ s.V.gXV S n A ' f.d.( ( ( -.-.i..XXXXXXX.XS.I E J L G L [ fXz z l >XcXcXcXcXcXcXcXcX",
"cXcXcXcXcXcXcXcXcXcXcXcXcXcXcXcXcXcXcXcXcXR.d.$XqXH % $ O + *.K.&.! e.e.e.T.Q.XX.XQ.Y.l R J G P P G S fX1XE.F.lXcXcXcXcXcXcXcXcX",
"cXcXcXcXcXcXcXcXcXcXcXcXcXcXcXcXcXcXcXcXcXlXp.iXy.eX6.D b O o o.a.-.i.J.;.W.W.W. X .I A F b j N B F oX;XiX|.iXcXcXcXcXcXcXcXcXcX",
"cXcXcXcXcXcXcXcXcXcXcXcXcXcXcXcXcXcXcXcXcXlXq.0X0 d R.qX= h b A ;XW.J.a.E. XT. .l Z A V N V S S V =XR.x iXS.cXcXcXcXcXcXcXcXcXcX",
"cXcXcXcXcXcXcXcXcXcXcXcXcXcXcXcXcXcXcXcXcXcXcXF.9 t a.F...H V B tXi f Y.,XY.}.oXZ.{.=XD b j % ` tXu.i 8 E.gXcXcXcXcXcXcXcXcXcXcX",
"cXcXcXcXcXcXcXcXcXcXcXcXcXcXcXcXcXcXcXcXcXcXzXX.3 r 3X' } F S S dXv +.@.v %.=XG J G G K ..A oX1Xd 8 2 6  .-XcXcXcXcXcXcXcXcXcXcX",
"cXcXcXcXcXcXcXcXcXcXcXcXcXcXcXcXcXcXcXcXcXcXlX8.> 0 G.% N F F 4.Y.@.+.+.O.Y.:.F L [ { #X( 3.Y.9 9 7 1 X Y hXcXcXcXcXcXcXcXcXcXcX",
"cXcXcXcXcXcXcXcXcXcXcXcXcXcXcXcXcXcXcXcXcXcXF.X ; =.} g N b b wX! f O.f f 9XK G J 7.F.+XS.%.%.r 8 6 ; * dXcXcXcXcXcXcXcXcXcXcXcX",
"cXcXcXcXcXcXcXcXcXcXcXcXcXcXcXcXcXcXcXcXcXH. .2 6 A.= b N $ H 9Xa y s s c uXn F J L [ M.o.&.@.y ; X 6 hXcXzXcXcXcXcXcXcXcXcXcXcX",
"cXcXcXcXcXcXcXcXcXcXcXcXcXcXcXcXcXcXlXlXS.* 1 2 o.A % b % $ oX%.a a a t $.OXn S S m J iXf O.+.f Q . eXlXcXcXcXcXcXcXcXcXcXcXcXcX",
"cXcXcXcXcXcXcXcXcXcXcXcXcXcXcXcXcXcXcX7.w 2 > ( G.j % # % N tX8 t y y a E.2.n S S N } Y.r s s %.7.tXcXcXcXcXcXcXcXcXcXcXcXcXcXcX",
"cXcXcXcXcXcXcXcXcXcXcXcXcXcXcXcXlXjX5.*.; > 6 tXN % % % % 5.u.t t y t i uXV m m N B M.w.a u a :XB cXcXcXcXcXcXcXcXcXcXcXcXcXcXcX",
"cXcXcXcXcXcXcXcXcXcXcXcXcXcXcXcXcXC.| 6 > 8 u.C.% $ % h # qX0 t t y y c qXV b n B N =X%.a 5 ! 2.V zXcXcXcXcXcXcXcXcXcXcXcXcXcXcX",
"cXcXcXcXcXcXcXcXcXcXcXcXcXcXcXcXH.o %.2 9 0 9X= $ b $ $ 6.R.i 5 r r t u.Z.N b N B N aXc s y ( V V jXcXcXcXcXcXcXcXcXcXcXcXcXcXcX",
"cXcXcXcXcXcXcXcXcXcXcXcXcXuXS.A.Y 6 1 3 2 F.5.% O $ % j 8Xd r r r r p 3XJ b N N N V fX0 s t y.n H cXcXcXcXcXcXcXcXcXcXcXcXcXcXcX",
"cXcXcXcXcXcXcXcXcXcXcXlXp.E.W.a.; 2 2 2 Q :X$ @ @ % h ..$X7 3 3 7 r i tXb N b b B V tXi t p 8Xm { jXcXcXcXcXcXcXcXcXcXcXcXcXcXcX",
"cXcXcXcXcXcXcXcXcXlXcXF. X~..X; 2 4 7 6 2XA # % N O $ :X~ 2 3 3 7 5 &.OXN % b N b L 9Xp r #.C.n M.cXcXcXcXcXcXcXcXcXcXcXcXcXcXcX",
"cXcXcXcXcXcXcXcXcXF.3X$X.X~.J.2 2 3 9 B.0.% # @ @ = { 3X1 > 2 3 3 5 $X4.j N N b b 4.*Xp r 0 R S =XcXcXcXcXcXcXcXcXcXcXcXcXcXcXcX",
"cXcXcXcXcXcXA.q.gX| W ,X.XQ.! > 3 2 ^ :X$ @ + % # + =X&.3 > 2 3 3 8 tXV j h b b b Z.Y.r r r U D gXcXcXcXcXcXcXcXcXcXcXcXcXcXcXcX",
"cXcXcXcXcXcX0.W 7.W Y ,X.XQ.1 2 8 8 :XD % $ # O @ H 8X6 , > 2 3 3 ^ qX% b N N b b OXy.r r r w E cXcXcXcXcXcXcXcXcXcXcXcXcXcXcXcX",
"cXcXcXcXcXcX0.I k I C y..XXX> 3 1 F.C.+ + + + + # oXs.2 2 3 3 3 5 B.oXh b b b b B wX$.r y r r / cXcXcXcXcXcXcXcXcXcXcXcXcXcXcXcX",
"cXcXcXcXcXcXH.I C I C ~ .XW.; 8  .7XO # # # # @ V 8X0 2 2 3 3 3 4 3X4.% b b N b % qXc 7 y r t F.cXcXcXcXcXcXcXcXcXcXcXcXcXcXcXcX",
"cXcXcXcXcXcXgXC C I C Y .XQ.J.1.5XT + O O $ % $ Z.$X2 2 3 3 3 9 0 tXV % % % % j V tX0 7 r a t @XcXcXcXcXcXcXcXcXcXcXcXcXcXcXcXcX",
"cXcXcXcXcXcXcXI C k C ] W.T.t.[.].].`.D.) - & = >X%.> > 2 3 3 3 _ tX% % % % N N V tX8 3 7 y p iXcXcXcXcXcXcXcXcXcXcXcXcXcXcXcXcX",
"cXcXcXcXcXcXcX8X- k - 8.K.K.=.(.].].].].].[.5X&X6X&.u > > > > 3 S.=Xb B % % N N } tX8 r 7 e p lXcXcXcXcXcXcXcXcXcXcXcXcXcXcXcXcX",
"cXcXcXcXcXcXcXcX#XT T f.d.d.g.m.^.).].[.[.].[.[.[.[.[.'.L.! < < 2X6.O O # | Z + ..3X9 5 7 r d cXcXcXcXcXcXcXcXcXcXcXcXcXcXcXcXcX",
"cXcXcXcXcXcXcXlXcXzXhX8.i.K.g.1.b.z.I.^.(.).).).).).(./.^.b.P.1.R.o.k Z = R I E ' $X9 t y t =.cXcXcXcXcXcXcXcXcXcXcXcXcXcXcXcXcX",
"cXcXcXcXcXcXcXcXcXcXcX3Xw.d.d.=.m.b.b.I.I.I.^.^.^.^.I.P.P.x.b.,.K.d.U.p.C z z C l R.i y p p iXcXcXcXcXcXcXcXcXcXcXcXcXcXcXcXcXcX",
"cXcXcXcXcXcXcXcXcXcXcXjXrX8.d.a.r.b.b.b.b.P.P.P.P.m.b.P.P.P.I.&.d.d.K.8.C I I Z I S.$.d i 0 lXcXcXcXcXcXcXcXcXcXcXcXcXcXcXcXcXcX",
"cXcXcXcXcXcXcXcXcXcXcXcXcXcXN.p.r.v.l.P.z.b.b.b.b.m.m.m.b.z.I.,.s.V.g.y.I C Z I *.d.K.K.s.tXcXcXcXcXcXsX+X>XcXcXcXcXcXcXcXcXcXcX",
"cXcXcXcXcXcXcXcXcXcXcXcXcXcXcXhXF.A.b.b.P.z.z.b.b.b.b.m.b.z.m.,.V.d.V.V.Y q - / V.d.K.d.y.cXcXcXlXlXX.U E ' ' sXlXcXcXcXcXcXcXcX",
"cXcXcXcXcXcXcXcXcXcXcXcXcXcXcXcXcXcX&Xc.n.z.z.z.l.b.z.n.b.b.b.&.a.d.d.f.f.u.s.g.J.K.g.f.;XcXcXcXcXH.C C E ' ' W lXcXcXcXcXcXcXcX",
"cXcXcXcXcXcXcXcXcXcXcXcXcXcXcXcXcXcXlXpX9.m.b.m.b.b.b.v.b.v.&.f.=.s.d.d.d.d.d.d.d.d.V.y.jXcXcXcXcX| C C I R R U cXcXcXcXcXcXcXcX",
"cXcXcXcXcXcXcXcXcXcXcXcXcXcXcXcXcXcXcXjXhX@X .<.r.r.r.<.=.t.d.s.w.s.i.d.s.s.d.d.d.d.y.hXgXcXcXcXcX| C C C C I R cXcXcXcXcXcXcXcX",
"cXcXcXcXcXcXcXcXcXcXcXcXcXcXcXcXcXcXcXcXcXcXcX*Xy.p.s.f.s.d.d.d.d.s.d.a.s.d.d.d.d.q.lXcXcXcXcXcXjX:XR q 6XI C +XcXcXcXcXcXcXcXcX",
"cXcXcXcXcXcXcXcXcXcXcXcXcXcXcXcXcXcXcXcXcXcXcXcXcXcXuX;XS.W  .&. .8.y.f.V.V.S.8.R.lXlXcXcXcXcXcXcXcX;X&Xo.W +XlXcXcXcXcXcXcXcXcX",
"cXcXcXcXcXcXcXcXcXcXcXcXcXcXcXcXcXcXcXcXcXcXcXcXcXcXcXcXcX>X>.7.>.&XlXlX9X3XhXcXcXcXcXcXcXcXcXcXlXpX/./.jXcXcXcXcXcXcXcXcXcXcXcX",
"cXcXcXcXcXcXcXcXcXcXcXcXcXcXcXcXcXcXcXcXcXcXcXcXcXcXcXcXcXcXp.>.>.:.dXcXlXcXjXcXcXcXcXcXcXcXcXcXrX(.`.rXcXcXcXcXcXcXcXcXcXcXcXcX",
"cXcXcXcXcXcXcXcXcXcXcXcXcXcXcXcXcXcXcXcXcXcXcXcXcXcXcXcXcXcXcX>.>.7.o.6XcXcXcXcXcXcXcXcXcXjXjXD.`.).6XcXcXcXcXcXcXcXcXcXcXcXcXcX",
"cXcXcXcXcXcXcXcXcXcXcXcXcXcXcXcXcXcXcXcXcXcXcXcXcXcXcXcXcXcXlXgX>.7.7.>.7.>XlXcXcXjXjXjX6XD.k.I.D.rXcXcXcXcXcXcXcXcXcXcXcXcXcXcX",
"cXcXcXcXcXcXcXcXcXcXcXcXcXcXcXcXcXcXcXcXcXcXcXcXcXcXcXcXcXcXlXlXjXH.o.7.>.7.o.>.c.k.k.v.n.v.9._.jXcXcXcXcXcXcXcXcXcXcXcXcXcXcXcX",
"cXcXcXcXcXcXcXcXcXcXcXcXcXcXcXcXcXcXcXcXcXcXcXcXcXcXcXcXcXcXcXcXcXcXlXH.>.>.<.h.n.D.c.9.v.6XlXjXjXjXcXcXcXcXcXcXcXcXcXcXcXcXcXcX",
"gXgXgXgXgXgXgXgXgXgXgXgXgXgXgXgXgXgXgXgXgXgXgXgXgXgXgXgXgXgXgXgXgXgXgXkXkXkXgXpXrXpXgXgXgXgXgXkXkXkXgXgXgXgXgXgXgXgXgXgXgXgXgXgX"
};
