/* XPM */
static char *_7aa4b53d05e4a789c894c1b353c87e0HIu9nCfYLInElxXZ[] = {
/* columns rows colors chars-per-pixel */
"64 64 251 2 ",
"   c #0A0604",
".  c #180808",
"X  c #181618",
"o  c #1A151A",
"O  c #1B1A1D",
"+  c #250405",
"@  c #37080B",
"#  c #2D1417",
"$  c #0F1727",
"%  c #171A25",
"&  c #1C2220",
"*  c #1A2234",
"=  c #1E363E",
"-  c #28262A",
";  c #35292B",
":  c #30322E",
">  c #262934",
",  c #2B2E3C",
"<  c #382D35",
"1  c #293639",
"2  c #2C323D",
"3  c #343433",
"4  c #3A3433",
"5  c #373837",
"6  c #33343C",
"7  c #343B3B",
"8  c #3B3B3B",
"9  c #470D13",
"0  c #4D0C14",
"q  c #4D131A",
"w  c #54131C",
"e  c #5B141C",
"r  c #59181D",
"t  c #62161D",
"y  c #4D1A20",
"u  c #5B1923",
"i  c #661A24",
"p  c #721924",
"a  c #4E2B31",
"s  c #65232B",
"d  c #712D35",
"f  c #792C34",
"g  c #1B4228",
"h  c #184636",
"j  c #1D4D3B",
"k  c #1D533E",
"l  c #264638",
"z  c #36423E",
"x  c #25543E",
"c  c #40423F",
"v  c #133848",
"b  c #252D45",
"n  c #2D2F42",
"m  c #243747",
"M  c #2C3242",
"N  c #323344",
"B  c #3A3B44",
"V  c #2D3854",
"C  c #463A48",
"Z  c #4B3B50",
"A  c #6A3A44",
"S  c #1E5B45",
"D  c #354343",
"F  c #3B4344",
"G  c #384848",
"H  c #3B4C4B",
"J  c #225542",
"K  c #255B45",
"L  c #255D49",
"P  c #2B5A48",
"I  c #3A554A",
"U  c #324A50",
"Y  c #3E5252",
"T  c #3B5358",
"R  c #246146",
"E  c #25624C",
"W  c #2B624D",
"Q  c #32604C",
"!  c #2C6651",
"~  c #2E6852",
"^  c #386655",
"/  c #364D63",
"(  c #43434B",
")  c #484349",
"_  c #444B4B",
"`  c #53464A",
"'  c #42534D",
"]  c #50524D",
"[  c #484755",
"{  c #544957",
"}  c #435453",
"|  c #475958",
" . c #555959",
".. c #6B5355",
"X. c #4B655B",
"o. c #53655D",
"O. c #4D715E",
"+. c #60645B",
"@. c #485467",
"#. c #585B68",
"$. c #495773",
"%. c #685C67",
"&. c #4A6563",
"*. c #586666",
"=. c #5A6B64",
"-. c #5C6B6B",
";. c #5D7668",
":. c #536775",
">. c #5C7571",
",. c #65676C",
"<. c #7A686A",
"1. c #63776B",
"2. c #70746C",
"3. c #696A76",
"4. c #766874",
"5. c #697778",
"6. c #76787B",
"7. c #81252F",
"8. c #832632",
"9. c #842A34",
"0. c #882C37",
"q. c #8A2D38",
"w. c #89333C",
"e. c #91323D",
"r. c #893A44",
"t. c #923642",
"y. c #963843",
"u. c #8A4D54",
"i. c #9D706D",
"p. c #8F7170",
"a. c #9A7A74",
"s. c #548475",
"d. c #68846C",
"f. c #698576",
"g. c #758979",
"h. c #76957B",
"j. c #8D8776",
"k. c #AB8A75",
"l. c #D0AC7F",
"z. c #5A6F87",
"x. c #777885",
"c. c #71758A",
"v. c #887A87",
"b. c #AC7E84",
"n. c #6F8B8F",
"m. c #788787",
"M. c #799787",
"N. c #7BA293",
"B. c #6B97A2",
"V. c #7193A7",
"C. c #7BB7D1",
"Z. c #6FC1DB",
"A. c #72C4DC",
"S. c #79C6DB",
"D. c #7DCBDE",
"F. c #78C6E0",
"G. c #7FD0E1",
"H. c #8D8D8E",
"J. c #978487",
"K. c #829A88",
"L. c #898998",
"P. c #998B96",
"I. c #999797",
"U. c #A98988",
"Y. c #AA918D",
"T. c #A79797",
"R. c #B6989A",
"E. c #8DA692",
"W. c #A8A69B",
"Q. c #B7AF97",
"!. c #888AA7",
"~. c #938FAE",
"^. c #9697A5",
"/. c #9896B9",
"(. c #A49AAD",
"). c #92ACAE",
"_. c #A6A7A9",
"`. c #B7A5A8",
"'. c #B9B5A9",
"]. c #ABACB8",
"[. c #ACB1B1",
"{. c #B8B6BC",
"}. c #C39C96",
"|. c #CDB28E",
" X c #D5B789",
".X c #CAB5AE",
"XX c #C8BBBA",
"oX c #9BC9BE",
"OX c #ADC5B3",
"+X c #DBC397",
"@X c #E4C897",
"#X c #CEC9B7",
"$X c #E7D5AF",
"%X c #9C9BC5",
"&X c #8DA9C4",
"*X c #90B5CC",
"=X c #9AB6DA",
"-X c #A8A6C8",
";X c #A9B7CE",
":X c #B7B8C4",
">X c #8BBDE1",
",X c #A8BEE4",
"<X c #C8BDC9",
"1X c #D5BCC5",
"2X c #86C9DC",
"3X c #94CFD6",
"4X c #89D2DE",
"5X c #B8C5C7",
"6X c #A5CAD7",
"7X c #B1D2D3",
"8X c #9DE3DE",
"9X c #A5E4DB",
"0X c #B8E4D9",
"qX c #86CAE1",
"wX c #93C6E3",
"eX c #88D5E2",
"rX c #8CD4E2",
"tX c #95D9E3",
"yX c #9ADDE4",
"uX c #ACC7E5",
"iX c #A4DBE6",
"pX c #9DE1E4",
"aX c #A7E4E5",
"sX c #B6E6E4",
"dX c #C8C9CA",
"fX c #D5C7C9",
"gX c #C9D4CD",
"hX c #D6D3CB",
"jX c #CACBD3",
"kX c #D6C6D3",
"lX c #CBD4D7",
"zX c #D6D5D8",
"xX c #E5CBC9",
"cX c #EAD1CD",
"vX c #F2D5CE",
"bX c #E3CADB",
"nX c #E9D8D7",
"mX c #EDD2DC",
"MX c #F6DAD6",
"NX c #F7DAD7",
"BX c #CAE7D9",
"VX c #D9E3D9",
"CX c #E8E6D5",
"ZX c #CFD9E2",
"AX c #E6CEE0",
"SX c #F1D4E0",
"DX c #CCEBE9",
"FX c #D9E7E7",
"GX c #E4EAE8",
"HX c #EBF1EF",
"JX c #F4F4F8",
/* pixels */
"D.D.qXS.S.2X4XD.Z.Z.Z.Z.Z.Z.Z.Z.Z.Z.A.A.Z.Z.Z.Z.Z.Z.A.A.S.2XV.wXwXwX>X>XC.C.*XV.S.qXrXqXS.A.A.A.A.A.C.n.F 6 3 3 3 5 5 3 ; ; G } ",
"rX4X2X2X2XtXtX4XD.A.F.A.A.A.F.F.F.F.A.A.A.A.F.S.D.2X4X3X*X/ V.iXiX2X*XC.z./ v *XwXqXS.S.S.S.S.S.F.F.S.n.G 5 3 3 3 5 5 4 ; 4 | 1 ",
"4X4X4XrXyXiXiXyX2XD.D.S.S.S.F.F.F.F.F.F.S.D.4XeXyXiX6XT m T n.&.U m m m b m *X2X>X2XS.F.F.G.D.D.D.D.D.B.G 6 3 3 3 5 5 4 < _ 1 6 ",
"qX2XtXyXiXiXaXiX4XqXD.D.D.D.D.D.D.qXG.4X4XtXaXiX6X:.1 M M M M 1 M M M M b T m v $.qXqX4X4XeX4X4X4XqXqXB.G 7 1 3 3 3 5 < a 7 1 F ",
"qXqXqXwXwXiXaXaXtXeX4X4XeXeX4X4X2XeXyXyXpXaXsX).= M , M M M M M M M M M M M n c.).C.2X2X2X4XrXrXeX4XeXB.H 7 7 3 3 3 4 < ; 7 D G ",
"qXqX2X2XwXiXaXiXtX4X4X4XeXeXeXeXeXrXyXyXiXiX&.M M M M M M M M M M M M M M M M m m m m m v 2XtXrXrXrXeXB.F 6 6 3 5 5 4 - 3 D D D ",
"rXrX2X2XwXtX3X3XwX4X4XrXrXrXrXrXrXrXrXtX3XU m N M M M M M M M M M M M M M M M M m n 6 1 ).oX3X3XrXtX4XB.F 6 6 5 7 ] ; ; 5 D D D ",
"yXyXyXyXyXaXpXyXtXtXtXtXtXtXtXtXtXtXyX3Xm M M M M M M M M M M M M M M M M M M M M 2 2 ^.XX{.[.6XtXyXtXn.( 6 7 7 ] 3 ; : z z D B ",
"8X8X8X9X9X0X9X9X8XpXpXyXyXyXyXyXyXyX6Xm M M M M M M N M M M M M M M M M M M M M M N , B #.x.L.L.).yX3Xn.( 6 7 | 7 : ; 3 F D G D ",
"9X9X9X[.Q.#X#X7X8XaXaX8X8X8X9X8X8XiXm M M M M N M M M M M M M M M M M M M M M M M 2 , M M M , U 3X7XN.5._ 5 7 F > 8 ; 5 F z G D ",
"sXsX7XW..X'.'.[.6XiXaXaXaXaX9XaXsXT M M M M M N M M M M M M M M M M M M M M M M M M , > 2 H x.).3XN.n.>.( 8 > - 7 8 ; 5 F z G D ",
"sXsXsXlXGXGXGX7X=XiX*X6X6X9XaXsX)., M M M M M M M , N M , M M M M M M M M M M M M M M > > m.^.).oXf.>.*.( 8 1 6 7 8 ; 5 D 7 G D ",
"BXDXDX7XFXFXFX7X*XuX&X=X6X6XsXDX1 , M M M M M 2 2 > > N M M M M M , M M M M M M M M M > % > {.5X).f.>.-._ B 7 7 8 4 ; 7 F 7 G F ",
"VXVXVXjXFXFXFX7X*XuX&X=XuX6XDX).2 M M M M M M M 6 % o % , M M , % $ , M M M M M M M M 2 o O - OXM.f.>.-.( B 7 7 z 4 ; 8 G 7 H G ",
"#XQ..XW.OXdXdX5X*XuX&X=X=X6XDX| M M M M n n , M 2 % O % % , > o o o > M M M M M M M M n % ,.1.).x.5.5.,.[ B 8 z z 4 ; B G B H D ",
"#X.XW.W.Q.'.'.[.-XuX&X=X=X6XDX> M M M M M M * N , $ $ $ $ $ $ $ $ $ * 2 , M M M M M M M % 1 m.[.H.x.x.4.` B 7 G z < 4 D G D H D ",
"HXFXFXjXGXGXVX5X*XuX&X&X&X6X5X2 M M M M N N * M , [ @.$./ $./ / V V b M * M M M M M M M H 5.m.v.v.v.v.4.` B D G 8 < 4 G H D H D ",
"GXGXFXZXHXHXHXZX&X,X&X&X).5XL.2 M M M M N n 3.M 2 JXJXlX:X:X:X:X:X^.H M B M , M M M M M 1 5.P.P.P.H.v.%.` B D G B < 3 D H D H D ",
"VXGXFXlXFXHXGXZX&X,X=X=X;X5X*.m M M M M M , ^., M JXJX:X:X:X{.:X].L.( N @.M * M M M M 2 > H.P.^.c.#.:.3.[ F z H 8 < 7 D H D G D ",
"zXzXzXgXgXGXFXZX*X,X,X,X;X].D M M M M M , , ]., N JXJX].#.x.3.3.^.L.( 6 3.M N M M M M 2 , m.%.3.c.L.~.x.( F z H 8 < 7 D G D G D ",
"hXhXhXgXW.#X#X5X).uX,X,X;X:X2 n M M M M > B :XN N JXGX#.:Xx.^.].:Xx.( N L.n [ M M M M 2 2 L.L.!.z.n./.x.[ F z I 5 < 7 G G z G D ",
"CXCX#XW.E.Q.$XQ._.;X,X,X;X].6 N M M M 2 % [ :X[ N JXdX3.x.].x.{.:Xx.B #.^., @., N M M M , x.x.c.c.!.~.c.[ F z H 3 < z G G 7 7 z ",
"CXCXE.h.K.OXE.W._.uXuX;X-X_.6 n M M M M 6 3.:Xm.N JX,.3.].:X3.].{.6.B L.]., 3.n M M M 2 2 m.^.3.#.c.!.c.[ F z H 3 4 z G ( : ; a ",
"hX#Xg.d.h.E.M.E.E.7X;X).M.5X2 n M N M n ( 3.:X:X6 JX,.3.,.,.L.:X_.x.B ].].6 3.> N M M M 2 g.E.| @.c.c.3.[ ( D _ 4 4 F G a ; 3 4 ",
"E.K.h.;.h.h.M.h.M.gX7XE.h.K.2 M M n M 2 > m.;X:X6 JX{.{.:X:X{.:XL.x.B :X:XM 3.- 6 M M M 2 ;.E. .@.L.!.c.[ ( D _ 4 4 D D 3 3 c ; ",
"M.f.g.;.d.f.K.d.h.K.E.K.h.f.2 M n n N n $ M V V * / / @.$.$.:.z.@./ b :.:.* * % , M M M 2 X.E.-.#.n.!.c.[ ( D _ 3 4 G z 3 7 } 4 ",
"1.=.d.h.M.f.M.d.h.o.;.h.h.1.2 M M M n , P.T.T.P.C , 3.3.4.4.3.3.3.( - #.,.{ ,.o , M M n 2 ' K.5.#.c.V.c.( B B H 5 4 H 8 4 H } B ",
"-.X.=.f.1.;.K.g.1.o.;.f.h.1.2 2 M M 2 > ` ) ] J.XXY.p...cXMXMXU.<.R.`.J.%.)  .O 6 M M > , ' K.,.#.L.!.c.C B B H 8 4 _ a ) } D 1 ",
"} -.&.o.| X.d.g.1.1.f.f.;. .2 6 , M M - GXdX    o <.`.xXMXMXMXMX}.#X6.&     zXo , n 2 % , H g.6.3.L.(.v.C B B Y ( a _ 3 5 1 D _ ",
"' 5.>.| H =.1.d.O.=.d.f.;.} 2 6 , M M % zXGXo   p.nXxXMXMXMXMXMXcXxXHX+.  & HXo , n , % 6 _ I.P.J.P.J.4.) B 7 } _ 4 7 - 7 H } } ",
",.} | 1.o.g.d.d.h.5.1.o.o.} 2 , > M M % nXnXxXhXfXvXMXMXMXMXMXMXMXMXnXnXnXnXnXo > n , % 2 ` J.U.U.U.R.p.) ( B } 7 ; 3 - _ H | Y ",
"v.[ ' 1.h.M.d.h.h.1.X.1.=.} 2 , % M M o nXMXMXMXMXMXMXMXMXMXMXMXMXMXMXMXMXMXMXo - M > % 2 ` Y.U.U.U.Y.p.) ( 5 1 D ) 5 3 _ H X.Y ",
"(.,.,.5.f.h.d.d.g.-.} 1.=.| > 2 $ M 2 o cXMXMXMXMXMXMXMXMXMXMXMXMXMXMXMXMXMXMXo - M % O - C a.a.a.a.a.<.C ( 7 G G _ 3 8 _ H | T ",
"`.I. .;.;.h.f.h.;.| _ | *.=.B , $ , 2 o xXMXMXMXMXMXMXMXMXMXMXMXMXMXMXMXMXMXMXo % , % O 6 ` k.a.i.i.a.p.C F 7 H H _ 3 7 } H &.Y ",
"H.6. .} o.g.=.1.1.o.o.1.=.g.H 1 o > 2 o fXMXMXMXMXMXMXMXMXMXMXMXMXMXMXMXMXMXMXo % , o O  .` a.a.a.p.U.a.) F z H H ' z F ' H | Y ",
"^.5.*.1.o.;.d.;.X.o.| =.;.f.I 7 o & , o XXMXMXMXMXMXMXMXMXMXMXMXMXMXMXMXMXMXMXo % - o & %.) 4.<.<.<.U.4.) F z H H H G G Y H | Y ",
"lXm.*.| -.o.5.=.' | | =.d.5.G _ o O , o .XMXMXMXMXMXMXMXvXMXMXMXMXMXMXMXMXMXnXo O % o 5 3.c.!.~./.!.`.v.) ( 7 H H Y G H } G | Y ",
"lX5.*.o.o.o.o. .| *. .| 1.-.F  .o O > o T.MXMXMXMXMXMXMXcX.X.XMXMXMXMXMXMXMXnXo o o o %.x.!.~./.%X~.kXP.C ( 7 H H Y H H } G | Y ",
"dX5.*.-.-.| -.*.*.*. .-.=.*.*.,.O O O O p.MXMXMXMXMXMXMXMXMXMXMXMXMXMXMXMXMXnXo o o o L././.~.~./.~.nXT.C ( B H Y } H H Y G | Y ",
"jX5.>.-.*. .5.-.-.*.|  . .,.3.*.- +.O O ` MXMXMXMXMXMXMXMXMXMXMXMXMXMXMXMXMXfXo O o & L.~.!.!./.%X/.nXT.C ( B Y } } H H } G | Y ",
"dXc.5.5.-. .5.-.>.-.*.*. .,.,.6.6.+.8 o o .XvXMXMXvXMXxXvXcXxXXX#XMXMXMXMXcX..o o o ] x.~./.~./.%X/.fXT.C ( D } } } H H } G | Y ",
"dX5.5.5.-.#.,.-.-.*.,.2. .,.-._.W.` I.o o # fXMXNXMXMXMXMXMXMXMXMXMXMXMXMXJ.o o ( O I.E.D :.~.%X%X/.hXP.C ( D I } | Y H } G } Y ",
"jXm.5.3.*.#.*.-.-.-.5.5.#.-.D ;.^.] _. .o o 4 xXMXMXMXMXMXMXMXMXMXMXMXMXY.- O o I.> =.l h z.%X-X-X-XzXP.C ( D | } | Y H } G } Y ",
"lXH.x.3.,.%.,.3.3.5.5.6.,.5.I P J X.K.W.O 4.; U..XMXMXMXMXMXMXMXMXMXvXU.Y.j.,.& I l j j j !.%X;X;X-XhXP.C B z ' } | Y H } G } T ",
"zXfXkXkX<XkXkXjXjX<X<X<X<X:Xm.K S J P P l =.] `.R.R.MXMXMXMXMXMXMXxXk.}.p.z l j k S k k J ].%X;X-X-XfXP.C F z I ' | Y H | U } T ",
"nXbXbXbXbXbXbXbXAXAXAXAXbXbX[.W E W W W E ! Q _.U.b.a.#XMXMXMXcX.Xi.u.d dXJ L L L K S k P ]././.-X/.XXP.) ( 7 Y } | Y H } H } T ",
"mXmXmXmXSXSXSXSXSXSXSXmXmXmXzXP ! W ! ! W ! ~ M.fXr.f r r.u.u.d u w f A VX^ ! W E E S R I P.~.(.~.~.`.P.) F B ' } | } H } H | T ",
"mXmXmXmXmXmXmXmXmXmXmXmXmXmXnX| ! ! ~ ! W ! ~ s.nXr.y.y.t.8.p f p w.t.u.VX^ E W E E L L *.bXbX1XkXkXbXP.) F D Y } X.} Y } H | T ",
"fXfXfXfXfX<X<XfXkXfXfXfXfXfXfX5.W ! ! ~ ~ ~ ~ O.nXr.y.y.t.f p 8.t.e.t.u.VX^ ~ W E W E W  .J.v.v.v.p.p.4.` _ G ' &.&.| } } H | } ",
"I.W._._.[.[.{.{.{.5X5X5X:X:X{.).E E W W ! ~ ~ ^ CXu.y.y.t.8.8.f r.e.e.r.GXO.! W E L E S I  .{ { { Z Z C C B  .o.X.X.X.} | H | } ",
"W.W.W.W.T.T.T.T.Y.J.J.W.W.T.W.O.E E W W ! ! ! Q VXu.y.t.t.0.0.0.t.t.e.r.nX>.~ P R I f.P x H { Z ` C C C B B B B B [ #.#.@.@.@.| ",
"jXlXlXzXVXzXzXzXlXhXhXzXgX[.>.K S E E W W W W Q VXu.t.t.t.8.8.7.w.w.e.w.mXf.^ g.g.T.a H.I I 6.6.#.Z C C C Z Z C C C N 6 N B [ #.",
"jXjXjXlXzXlXlXzXjXhX`.p.gXI W E S L S E W L E W VXu.t.w.e.0.7.8.q.w.e.w.cXM.| d i a R.J...p.1.X._.J.v.%.{ [ Z C C C C B C N N N ",
"dXjXjXjXjXjXjXfXb.s s d gXP W L s.! S W 0XN.L W VXu.t.q.w.0.8.8.q.q.e.w.cXM.' u.p R.I.`.i s +.O.XXs s p.`.L.3.{ C Z Z C C C B N ",
"zXjXlXlXdXfXT.a u p p s fXQ P n.0XW ~ ^ FXm.P L BXu.w.q.q.0.0.q.q.q.q.w.xXM.Q I.T.I._.<.p.a ] &.XXi i i y ..<X].^.H.6.,.#.{ { [ ",
"zXzXjXlXfXA u i i i t s XX;.J P ).).s.n.DXN.! W BXp.q.0.q.q.0.0.q.q.q.w.xXM.W I I E.E.z g.2.l X.T.e u u e i a XXjXjXdXjXjXdX:X].",
"zXzXlX<Xy w u 0 w r e i U.m.J O.DX^ S J 7Xn.W P lXi.q.0.q.q.0.0.q.0.q.w.xXM.W P f.1.OXj g M.l >.p.e e e r u 9 y zXzXZXlXlXlXzXzX",
"hXhXzX..w e 0 w 9 q w e ..E.l J P L L L L L E W gXa.0.0.0.0.0.0.0.0.q.w.xXM.E K P h.l l g.l j m...w w q q 9 9 q R.zXdX#X.XI.W.W.",
"dXdXfXa t 0 w 9 @ @ 0 e q '.h x x L K L L L L W 5Xa.0.0.0.0.0.0.0.0.0.f xXn.L L K x g.g.D h j 5.A w 9 @ @ @ 9 w a..X#X.XQ.k.Q.k.",
"}.k.k.r t u w 9 @ + @ e w .Xl h k S L L L L L K OXU.9.8.8.8.8.8.8.8.8.f fXf.S K K J j j j j j =.s e @ . + @ q u R.CXvX$X$X+X|.l.",
" X X}.r i u r q @ + @ w w J.l h j k K L L L L P OXY.9.8.8.8.8.8.8.8.8.f XXn.S K K K K J J j h o.u w +   + 9 q i `.#X@Xk.|.+X X X",
"@X+Xk.i i i e w 9 + + 9 r d o.h h j J J K K K P [.R.8.8.8.8.8.8.7.8.f f fXM.L x x k J J j h h =.y q + . + 9 w i `.Q.+X+X X X Xl.",
"@X@Xk.s i i t e 9 + . @ e r H.h h j k J J J K K ).R.9.8.8.8.8.8.7.f 7.f 1XM.J x k J k k h h h g.q 9 +   + 0 r i `.j.+X+X+X+X X|.",
"@X@Xi.u p i i e 9 + . @ e w W.h h j j k J J J K E.}.9.8.8.8.8.8.7.7.8.f XXM.J J x k k j h h h j.u q .   + q r i `.g.$X$X$X$X$X$X"
};
