/* XPM */
static char *_cf6a62084b141fbf445a8ca9a22ac39G0gjQdfiGKaHqRSV[] = {
/* columns rows colors chars-per-pixel */
"48 48 231 2 ",
"   c #27241F",
".  c #332F2A",
"X  c #35362A",
"o  c #393835",
"O  c #38513E",
"+  c #43423C",
"@  c #404234",
"#  c #4A5D3C",
"$  c #4C6335",
"%  c #444543",
"&  c #4A4A44",
"*  c #454648",
"=  c #49464A",
"-  c #46494B",
";  c #4C4C4B",
":  c #4B4545",
">  c #524D45",
",  c #534D4D",
"<  c #50474C",
"1  c #4C5146",
"2  c #4B5944",
"3  c #4B544C",
"4  c #53534C",
"5  c #57584D",
"6  c #4D4E53",
"7  c #524D57",
"8  c #545555",
"9  c #545955",
"0  c #5B5B53",
"q  c #535459",
"w  c #5B5B5B",
"e  c #585757",
"r  c #4D5353",
"t  c #625D5B",
"y  c #665B56",
"u  c #725E5D",
"i  c #4D6448",
"p  c #5D6E4C",
"a  c #576949",
"s  c #5D6156",
"d  c #5D6A53",
"f  c #5D635C",
"g  c #5D6B5A",
"h  c #56665C",
"j  c #5F705E",
"k  c #5F794C",
"l  c #64774E",
"z  c #636354",
"x  c #636B55",
"c  c #63645B",
"v  c #646C5C",
"b  c #6C6A5D",
"n  c #6D645D",
"m  c #736B5D",
"M  c #657654",
"N  c #64735B",
"B  c #6C7A5C",
"V  c #69775A",
"C  c #5C5D63",
"Z  c #565961",
"A  c #695F62",
"S  c #5D6565",
"D  c #5F616D",
"F  c #5C7464",
"G  c #646364",
"H  c #6D6464",
"J  c #636B64",
"K  c #6B6C63",
"L  c #64646A",
"P  c #66696C",
"I  c #6C6C6B",
"U  c #6A676E",
"Y  c #716362",
"T  c #736B65",
"R  c #796C66",
"E  c #756C6B",
"W  c #7A6C6B",
"Q  c #796569",
"!  c #6B7264",
"~  c #6C7B63",
"^  c #6E746C",
"/  c #6E7A69",
"(  c #637967",
")  c #727466",
"_  c #73746C",
"`  c #7B736D",
"'  c #747A6C",
"]  c #7A7B6C",
"[  c #757F67",
"{  c #6A6773",
"}  c #6D6C74",
"|  c #6C6C78",
" . c #666671",
".. c #736C73",
"X. c #7C6E74",
"o. c #736D7A",
"O. c #6D7273",
"+. c #6E7578",
"@. c #747474",
"#. c #7C7374",
"$. c #757A75",
"%. c #7C7C74",
"&. c #74747B",
"*. c #7B747C",
"=. c #757A7B",
"-. c #7B7B7C",
";. c #826D6E",
":. c #807F6D",
">. c #836D72",
",. c #847374",
"<. c #897476",
"1. c #827A74",
"2. c #8C7977",
"3. c #84767B",
"4. c #8B767A",
"5. c #847B7C",
"6. c #8A7B7C",
"7. c #927E7F",
"8. c #6D8656",
"9. c #72885F",
"0. c #6D8163",
"q. c #788769",
"w. c #7A9464",
"e. c #7C8274",
"r. c #7D837B",
"t. c #788777",
"y. c #83966D",
"u. c #828476",
"i. c #838B75",
"p. c #83837C",
"a. c #8A857C",
"s. c #848B7C",
"d. c #8C8A7D",
"f. c #85937C",
"g. c #8B937B",
"h. c #879676",
"j. c #8A8175",
"k. c #7C6F80",
"l. c #757481",
"z. c #7C7582",
"x. c #767B82",
"c. c #7D7B83",
"v. c #7D7C8B",
"b. c #777789",
"n. c #817684",
"m. c #837C84",
"M. c #8A7E83",
"N. c #837D8A",
"B. c #8A7F8A",
"V. c #897B8A",
"C. c #7E8283",
"Z. c #7E838B",
"A. c #7F8988",
"S. c #7E8192",
"D. c #838384",
"F. c #8A8484",
"G. c #858A83",
"H. c #8B8B84",
"J. c #84838B",
"K. c #8A858B",
"L. c #858A8B",
"P. c #8B8B8C",
"I. c #928283",
"U. c #928D84",
"Y. c #91868C",
"T. c #938D8B",
"R. c #849585",
"E. c #8C9286",
"W. c #8D9A84",
"Q. c #8D938C",
"!. c #889689",
"~. c #939186",
"^. c #93938C",
"/. c #9B958C",
"(. c #939A8D",
"). c #9B9A8E",
"_. c #989187",
"`. c #858592",
"'. c #8B8692",
"]. c #868B92",
"[. c #8C8C92",
"{. c #8C8C9A",
"}. c #898699",
"|. c #928D93",
" X c #908D9A",
".X c #8D9293",
"XX c #8E9695",
"oX c #949394",
"OX c #9B9692",
"+X c #959A93",
"@X c #9C9B94",
"#X c #95949A",
"$X c #9A9599",
"%X c #959A9B",
"&X c #9B9B9C",
"*X c #A39C95",
"=X c #A29D9C",
"-X c #A79A97",
";X c #A19B8F",
":X c #96A289",
">X c #9EA294",
",X c #9DA39B",
"<X c #9DA898",
"1X c #8FA58E",
"2X c #A2A295",
"3X c #A3A39C",
"4X c #A2AC9C",
"5X c #ACAC9C",
"6X c #A9A599",
"7X c #AFB49D",
"8X c #9D9DA1",
"9X c #9795A4",
"0X c #A39DA1",
"qX c #9FA3A6",
"wX c #A4A3A4",
"eX c #A9A4A4",
"rX c #A6AAA3",
"tX c #ABABA2",
"yX c #ABA5AA",
"uX c #ADACAB",
"iX c #A5A6A9",
"pX c #B1ACA2",
"aX c #B1ABA8",
"sX c #AAB6A7",
"dX c #B5B3A5",
"fX c #B7B5AA",
"gX c #AEAFB2",
"hX c #C0BCB9",
"jX c #BFC5C5",
"kX c #C9C4C5",
"lX c #D6D1CB",
/* pixels */
"[.'.|.|..X.Xr.&Xt.1X# k 8.w.9.w.M q.y.y.8.w.y.!.XXR.L.L.%XwX#XqX%XrXf.M ) J A U G I -.C C.Z.b.S.",
"D.P.Q.D.G.G.(.E.W.t.q.0.p 0.N ~ ~ 2 M V M p W.W.,X.X,XqX%X8X&XoXiX!.W.s v t G U L } x.J O.r.A.XX",
"t.1Xf.:Xg.g.h.g.p N t.C.A.XXL.oXL.P.L.+XXX' N e.!.Q.iX8X%XrX3XrXwXgXsX' I #X'.[.J.K.P.4XV p s.e.",
"B V [ [ l p l w.M q.p.J.{.v.`.c.z.v.'.x.@.Q.e.x W.v J $.I r.%._ $.{.x.q c.@.J.b.b.c.=.e.:Xa B V ",
"Q.s.L.G.W.f.g.] B i.-.@.-.*.m.m.o.J.c.P.m.r.^.] u.:X_ c ~.v z ` _ 8 q Z.c.b.b.N.l.N.v.C.f.f.^ E.",
"G.G.P.c.C.Q.e.) ~ e.p.C.&.D.m.5.c.J.J.T.D.P.G.p.! 2X2X5X6XdXfXtXfX$Xr x.J.c.c.N.v.}.`.Z.!./ G D.",
"s.^.P.[.Z.L.%XI F Q.oXP.K.N.m.Y.m.#.M.P.K.m.D.oX* (.3X>X>X3X=XwXeX|.6 C.v.b.l.b.v.v.#X].XX$.+.K.",
"P.p.C.'.Z.Z.C.E.S A.L.P.[.N.M.5.I.#.3.m.P.F.K.|.* ^.3XOX,X+XtX3XyXP.r '.l.b.v.N.v.`.N.}.x.=.kX`.",
"D.K.[.D.J.r.Q.' h XXoX%XC.c.N.M.F.3.M.*...*.K.'.% |.@X@X4X,X,XwXwX|.; Q.`.v.N.b.v.J.Z.L =.jXOXeX",
"P.D.U oXQ.D.(.[ 9 R.L.C.`.J.F.P.5.Y.n.m.z.o.K.[.= oX(.@X@X&XwXwXwXD.; D.N.b.v.`.c.D.z.C O.D.H F.",
"P.T.|.m.P.G.^.e.3 R.L.Z.`.J.K.P.B.N.-.m.&...[.&X= P.^.>X+X3XoXwX&XH.$.$.`.b.v.c.*.@.J.} Z.Z *.K.",
"P.c. X[.L.-.G.e.d e.Z.J.x.'.|.F.P.m.m.J.v.'.G.oXo ,XoXoX^.&X&X&XwX$.^ $.&.`.N.b.J.} N.P.L.S { 9X",
"(.L. X{.Z.Z.K.} ^ r.*.*.#X|.m.Y.M.m.z.o.'.B.m.p.f oXoX[.%XwX%X%XqX.XJ +.c.l.c.z.z.c.K.D.+XJ } }.",
"1 8 e e L C @.< J P.-.K.F.5.Y.I.Y.E B.K...D.oXD.+ p.P.H.P.G.Q.+X@XG.J t.L.c.K.'.N.J.F.+X,X^ 6 q ",
"G.e.H.d.p.H.F.@.- @.N.oXD.D.F.m.p.H.1.T.D.%.@X@.4 + > b z z z X x p f.[ P.J.c.'.N.$XP._.u.e.H.K.",
"p.1.1.d.G.a.T.aXD.* $.H.Q.Q.%.oXD.^.G.H.d.(.H.4 ^.wX5X7XdX7XdX7Xg.q.2 :X) p.@.*.m.K.D.K ' e.H.H.",
"-.#.-.#.,.` W H 2Xp.% 3 x x s c s c b K _ z ! W.(.(.H.2X).^.OX2X2X6X:Xx d.5 & 5 t , 8 _ $.$.-.D.",
"o.o.*...E R E R m dXr.J i.h.d.d.u.p.s.d.0 s r.Q.R.G.^.T.@X3X=X3X3X6X4Xu.4XdXOXeX=XOX%XC -.c.@.$.",
"#.....*.E Y ` E u _.^ s ] :.1.1.1.p.F.a.3X1 H.r.s.D.s.^.OX=XOX@XoX&X&Xw @.} z.z.&.C.`.w O.=.c.#.",
"3.*.3...E R E ,.R U.5 5 m m m R #.T ) ` ' ! ^ D.p.p.5.p.OXp.F.T.oX^.&X6 o.b.N.l.N.'.'.D C.-.P.&.",
"K.@.H.D.D.T.%.` K =X% S b b ` n b Y R ] ~ ! ' ] u.d.H.d.T.~.G.U.d.).3XG l.J.z.x.c.[.D.f C.C.m.'.",
"m.D.D.=.#.-.-.s.-.uX- J E.d.F.6.` ` R u.( j ] j.s.d.d._._._.~.~.d.~.3Xe x.b.l.v.*.P.G.9 XXI c.K.",
"r.L.r.-.O.@.P.-.K.wXr J H.U.^.T.1.1.a.U.t.j (.U._.~.a.*X_.).*X@X/.*XwX6 {.| }.`.c.%XG.s G.D.#XN.",
"L.C.$.D.*.E r.P.m.gX* J H.s.s.H.1.5.Y H.F F E./.U.a.*X/.*X=X*X_./.OXwXq `.S.v.l.[.oXG.v r.C.J.J.",
"c.=.+Xm.E 3...%.5.|.= w %.s.~.H.H.#.%.^.F ( ).*Xd.).d._././._.*X*X|.P.6 `.`.| *.[.oXC.P J.c.o.N.",
"-.P.K.m.o.,.5.#.X.t < t ] ] e.%.` ` 1.G.R.O H._.^.~.*X/.;Xa.U.U.;X^.T.e -.C.J.-.P.$Xx.J -.&.B.N.",
"c.p.@.*.E #.@.H F., G w 1.] ) ` T K n c !.i ) d.).H.)._./.;X_./.).@XOX5 _ 0 0 ) & 4 e L =.c.{ l.",
"P -.-.#.#.H E ) #.#.. : ] v 4 _ > > > K ( 9 ! a.)._.U.2X_./.;X/.3X_.H.%.%.e.1.oX=XT.^.* &.b.&.o.",
"F.G c T U E z ! Q.% -./.6Xa.E.OX/.=X-XT.OXX & _ _ D.H.U.I._.T.OXU.D.I K oXT.K.B.5.N.F.uX= e J.I ",
"I 0 & , : + s f.; #.%.E W ` 1.E W Y Y u 2.kX  5 5 0 0 t y t 0 0 t _ ; P.-.K.B.B.n.m.m.|.C Z =./.",
"#.6._.;XY.H.W.q.K -.1.R <.W R >.<.;.>.u n 7.lXo K ) , ` p.` %.1.3X+ #.c.'.'.n.n.o.n.K.=.J < L N.",
"p.,.1.<.a.a.>X%.w K.,.2.2.>.Q R <.>.<.2.2.R 5X+ *X=X-X*X;XOX/.oXaX. p.D.K.N.N.K.n.n.c.N.N.I c.C ",
"3.W >.;.>.,./.0 G *.4.<.<.7.>.,.>.4.2.7.<.Q dXO ,.1.W >.A Y ,.R *X. 3.M.B.m.J.J.J.D.n.K.3.N.0Xt ",
"D.#.;.>.W R -XH P *.<.;.4.,.4.3.2.2.2.4.M.>.dXX m ;.W ,.4.X.Q ,.pX. Y.B.K.N.n.D.D.J.B.m.B.n.0XI ",
"-.F.4.Q a.1.2Xz 9 D.3.M.>.R ,.,.3.,.I.4.>.M.pXX ` #.2.>.6.3.,.,.*X. |.B.m.K.-.m.D.*.B.*.K.m.D.P ",
"-.@.X.5.5.1.a.a.^ @.3.6.,.2.4.<.4.4.<.,.B.2./.K #.,.3.W ..#.4.,.P.o |.B.N.n.J.N.m.o.B.n.m.J.$.O.",
"9 r w e 4 s 1 K & E a.,.7.2.<.4.4.#.3.3.3.p.Q.1 y #.,.X.X.#.>.6.a.* J.m.'.K.K.c.N.K.N.N.N.-.} 3 ",
"oXL.D.oXQ.G.Q.r.J ) ) :.1.<.4.4.3.5.3.3.,.oXH.' G #.A t A A , e T + @.K.N.l.c.`.K.m.n.N.z.C C ].",
"m.M.K.D.s.^.r.L.yX& y.9.e.-.z.N.3.M.3.F.F.OX$.' @X=XeXeX0XwXyXfXuXeXo &.K.l.l.| { { A l.C C c.C.",
"X.|.|.K.T.XX[.%XP.R.$ w.v w 7 7 7 < : : % 1 Q.+XwXoX0X=X$X0X=X|.D.8XiXe q q D Z C L A Z { #XI } ",
"..&.P.'.Q.XX%X{.#X,X8.8.R.%X X9X$X0XyXuXH._ Q.G.$X=X3XiXiX0XtXF.P.P.&X$.&.x.v.&.J.v.J.$XL `.K.{ ",
"n.m.x.oXG.XX].A.%X+Xk $ t.'.K.'.K.K.'.|.+X2 r.XX%X&X%XwX%XwXeX&XOX+X3Xf +.D  .l.o.o.D.P. .{.'.=.",
"*.N.P.=.].A.L.&.H.Q.i F r.J.J.N.D.K.K.P.<Xe.$.J.oXK.Q.P.%X0XwXeX[.P.sXS { x.N.z.N.*.K.K.l.].x.=.",
"..c.c.%XL.XXXX.XP.<X( S A.J.[.[.K.|.|.^.W.N G.L.%XoXP.'..X#XeX0X8XG.rXg P l.*.n.k.z.P.K.| {.x.+.",
"=.x.D.P.].]..XQ.D.^.F S J.|.[.J.J.P.|.T.sX2 G.'.|.|.[.oX.XiXwX$X&XG.<Xg I } z.n.V.*.$X@.l.S.S.A.",
"].Z.P.P.L.J.XXp.OX,X$.9 oXK.K.P.%XK.$X&Xh.~ G.|.$X%XoXL.J.#X0X&X&X,X>XN x.} o.n.k.z._.p.Z.{.{.].",
"P.G.F.^..X[.|.$XH.,X! h -. X|.P.P.P.%XOXt.M D.oX-.0XP.%X#X#XyXeXwXsX>Xx @.x.J.z.n.N.$XP b.9X X.X",
"XXP.OXT.%X[.oXP.T.Q.g v K.[.L.'.P.|.K.Q.:X0.P.|.8X%X&XP.wX%X$X&XeXuX7Xx =.x.c.n.z.z.,XK b.{.N.[."
};
