/* XPM */
static char *_592d6227e824a21caa2889372abb262sILSzPiCYwpAtzFI[] = {
/* columns rows colors chars-per-pixel */
"48 48 150 2 ",
"   c #1B1B1A",
".  c #151515",
"X  c #24221F",
"o  c #262422",
"O  c #2A2726",
"+  c #2B2926",
"@  c #2C2B2A",
"#  c #312F2D",
"$  c #33312F",
"%  c #312F30",
"&  c #353433",
"*  c #3A3734",
"=  c #3C3A36",
"-  c #373739",
";  c #373938",
":  c #3C3C3B",
">  c #413E3C",
",  c #3F403B",
"<  c #42413E",
"1  c #3F3D40",
"2  c #413F42",
"3  c #444342",
"4  c #494644",
"5  c #4A4946",
"6  c #49474A",
"7  c #47484A",
"8  c #4C4B4B",
"9  c #514E4D",
"0  c #52514F",
"q  c #4F4F51",
"w  c #514F50",
"e  c #555453",
"r  c #585554",
"t  c #575853",
"y  c #5A5956",
"u  c #565658",
"i  c #595759",
"p  c #575959",
"a  c #5D5C5B",
"s  c #605E5C",
"d  c #62615E",
"f  c #615F60",
"g  c #646463",
"h  c #696664",
"j  c #676862",
"k  c #6A6966",
"l  c #666668",
"z  c #696768",
"x  c #67686A",
"c  c #6D6C6B",
"v  c #716F6D",
"b  c #73716E",
"n  c #6F6F71",
"m  c #716F70",
"M  c #6F7072",
"N  c #757473",
"B  c #797675",
"V  c #7A7976",
"C  c #777779",
"Z  c #797778",
"A  c #77787A",
"S  c #7D7C7B",
"D  c #807E7C",
"F  c #7F807C",
"G  c #83817E",
"H  c #7E7E80",
"J  c #817F80",
"K  c #7F8082",
"L  c #848383",
"P  c #888684",
"I  c #878884",
"U  c #8A8986",
"Y  c #868789",
"T  c #898789",
"R  c #87888A",
"E  c #8D8C8B",
"W  c #908E8D",
"Q  c #8F908B",
"!  c #93918E",
"~  c #8E8E90",
"^  c #918F90",
"/  c #8F9191",
"(  c #959492",
")  c #969592",
"_  c #969696",
"`  c #969696",
"'  c #949393",
"]  c #999694",
"[  c #999995",
"{  c #9B9A96",
"}  c #969698",
"|  c #999798",
" . c #9A9A9A",
".. c #9D9D99",
"X. c #9F9F9E",
"o. c #9C9B9B",
"O. c #A09E9E",
"+. c #A1A09C",
"@. c #A3A19E",
"#. c #9F9EA1",
"$. c #A19FA0",
"%. c #A4A3A1",
"&. c #A6A5A1",
"*. c #A7A6A4",
"=. c #A4A4A3",
"-. c #A9A6A4",
";. c #A7A8A3",
":. c #A7A8A3",
">. c #A9A8A6",
",. c #ACAAA6",
"<. c #A9A7A8",
"1. c #AAAAA9",
"2. c #ADADAA",
"3. c #ACABAB",
"4. c #B1AEAC",
"5. c #AFB0AB",
"6. c #B1B1AD",
"7. c #B1AFB0",
"8. c #AFB1B0",
"9. c gray69",
"0. c #B4B3B3",
"q. c #B8B6B7",
"w. c #B9B6B4",
"e. c #BABAB6",
"r. c #B6B7B9",
"t. c #B9B7B8",
"y. c #BCBBB9",
"u. c #BDBCBB",
"i. c #C1BEBC",
"p. c #C2C1BE",
"a. c #BFBFC1",
"s. c #C0BEC1",
"d. c #BFC0C2",
"f. c #C3C3C3",
"g. c #C8C6C5",
"h. c #C9C9C7",
"j. c #C6C7C9",
"k. c #C9C7C8",
"l. c #CECFCA",
"z. c #CBCBCB",
"x. c #CFD0CA",
"c. c #D4D1CE",
"v. c #D1CFD0",
"b. c #D4D3D2",
"n. c #DCD8D5",
"m. c #DDDBDA",
"M. c #E4E3DF",
"N. c #E3E3E1",
"B. c #EFEFEF",
"V. c #F3EFEC",
/* pixels */
"k V & 1.s 5 I : c v F N E F F k Q S g c Q Q U G G ! P b U U x.@.@.{ G k d y X G d V y G o a k S ",
"t j , ( M , 1.5 8 x N N U F ) k L M a < +.G Q Q P G E W b +.e...+.+.v d v 5 , ) d G d N N V S 5 ",
"3 V & [ 9 e #.I 7 d , L F M F j C p f c 5.G G G D U c ! v ] p...5.{ k S d d $ G j b y G V B N # ",
"g S 3 k g 1./ A R @ e  .V a Q R A E < 1.] G V b Q ! N V G F x.G 6.@.0 b b d d d k d c ! B N V @ ",
" .n g c F 8 1.Y R @ s _ k L K N L 1.: M S G G U F U C ) d @.b...:.E r S G # h b c N v V b ! b = ",
"[ L a M 8 1. ._ L u l E M A g L 0.A O C +.N [ U Q R R ) B @.x.Q %.N e C k O ! V 0 b t b k ) < L ",
"F B./ s a  ./ ` R c M g 8._ N ` R q A u ! j ] Q G k e.F F h.:.5.L *.) d * O y.S < G d b b ( : Y ",
"M m./ 2 l 8.} E C M a R S 1.#.X.' p 8 #.! c G U F G +.c F m.:.:.+.3.:.# : c W ] 5 G d G G a y &.",
"L Y l g 7 X.} L l H q Y L _ Q } N R 8 1.g @.c G ) ) $.f S N.O.6.t.7.f : O E 4.P < D k c E v s -.",
"K ` q a 7 / } a K g g L S / z. .u K N ' a [ P E S *.D ^  .N.! 2.q.a.f 2 - z 0.g 4 N c c W N g U ",
"E :.C 7 u } M f ' u 7 ' X.L *.K A R d N ! ! W ) L | J E 6.f. .%.3.7.2 2 2 9 J v t t a 4.v N l T ",
"=.R g 0 5 ` H M =.3 H H r.K / C 7.n C 8 ..I ( W B  .0.C ..r.5.=.$.~ 1 % B O J U y > S b B S 8 o.",
" .I Q @ F / K g =.1 Y N M _ N c #.u u R &.S I ..N / 3.c X.u.X.1.$.x H f N $ G U d < k ) E v s <.",
"_ c M   1.K N x #.X F } 8.L a X.} C a Y ..R E P T R 3.f f.%.3.=.a.2 f 2 N : U G v d V G W g c E ",
"V d p ; E I N c <.q #.K X.& 5.*.H R q H q.L E W  .Z :.K 8.E ( r.7.6 & i W i V { t c b P E 2 L J ",
"L c ; d ` Y u ` M A z.A Y a / ( H H x '  ...T  .O.L E Y d.Y 5.=.#.2 1 <.E a N D t G D c g r T C ",
"8.f g Q Y a g / M H K K 1 } d.x A T l Z ^ ^ Z J 7.^ T ^ T D $.$.J 2 H J q.m v ] w B D S f 2 T | ",
"F ;  .N r.M f Q M #.1.x x K d.H H E i ^ J J J ~ J J t.s.Z i $.7.$.- $.| J 2 J D D v S S & n J ~ ",
"a l r.Y E p M S H 1.d.7 } K M x Z ^ i J T J J J m J 7.n.^ ^ E | ' J z s.z z J N 8 L c ] i u ~ r.",
"7 g I 0.A 8 x *.} p q } K K K K 8 ^ 8 ' m D J ^ Z O.k.$.' ~ T | J J 2 D f f D W 8 k b B 6 1 a.M ",
"f K a A C , I x.2 H / K M K x K 2 | f ` f | J N Z ^ s.^ J Z O.<.f J 2 D s 9 h J 0 D D j : k =.a ",
"F K , x n q C A K ~ K K H K - } N v E f k.J m Z Z ^ v.$.~ e $.^ J J D J D s D D y D S g N a R p ",
" .K g A x n f A / M K ~ H H p d.| Z J J 7.~ m N s | k.T ^ T $.E z J > s h D D s b N B S S x L e ",
"} / . g f M 7 =./ / n H H } % r.| m E | O.| z $.r v.$.| O.$.J c 2 -.2 D s D J h g r F N m.Y x M ",
"( e.o ..1 H @ ( ~ F K ~ R 7 } } ^ c c $.| ~ f | Z 7.J ~ | $.$.f i $.2 ^ m D ] d j < G S #.' g Z ",
"X.1.3 >.~ c 1 E Q ' } / R 7 8.} J z f 7.J D J ~ ~ <.J | $.T t.f z ^ $.<.D 2 D D V 8 B B ^ S w ^ ",
"F ..a 6.L l 7 K  .K F / p n 1.K J B ~ J 7.D ^ ^ J q.J J $.| | 2 | $.i.i D O W D N r B ^ ' f N J ",
"R $ V p.r M c S ~ :.R N l n =.u J f $.$.^ D D J $.$.Z D $.$.s ^ ^ B z f O.X @.D k s m W N : D D ",
",.> B W s S g o.K #.3.M x J 7.H f z | ^ J ~ m N $.J ^ | $.$.w q.D | 2 D i.9 D W k h D v D h D P ",
"D # O.v n f z R K } ~ p u ~ $.H f J J Z J f J f s.J O.3.3.m J <.c 7.m r G h D G s B D h p.y b 4.",
"# ] i.z H e c L H u Y n 1 $.$.f z $.^ f <.s B T ^ ~ | $.| i T J -.D h h G D d D d D h D -.s ! ,.",
"2 n.4.^ x e N ' x ' 8.f u ~ | m f | J J ^ f B J J T J Z Z m J D ! > D > r k v r > D h v ] D G ] ",
"B b ! D = V r L C _ j.q c Y } ~ j ..P e.G E c 7.J | E z G G + D ! v D 4 9 O.D O.9 b h D s @.D h ",
"D k P h 5 W z w S ( M : K ..Q C U O.B @.Y s ^ E ' L W c @.r > D -.O.f 6 s O.! J h D > D z D r ] ",
"D G D 4 G ! Q B f L a L o.S Y / B G { { E i z S T L D L k + G d z.C v w # O.G X W D 9 D h 9 O.W ",
"G D s r @.G G G - L C C S ( C E G G G ! E g 2 $.T E T v X v n.i.' w v f # O.s # ] > J h s D B ^ ",
"> D d G G G Q G x F  .F 1.L c E { D v ! j d G @.T U N 9 s D i.{ A z a P j I s > h X U d z v D 4.",
"d v d d G G B G 8 Q g F x.A N _ { ! D < j 5 x.G E O.r 0 O.D p.{ N V 4 +.! E v X > 5 h N h Z U O.",
"b G G y { k G d F R b F 5.G [ G G G k < ,.$ G G W h # B G ! c.&.s V P ! b p.s # > 9 r b B v B r ",
"b ,.B s G G G v U s 0 V 5.E F Q G G G D k $ G 4.L X k @.] i.i.i.v k ! ! D 4.r < > D d B r B g > ",
"G G j j F F F < G k G G G Q V { G e.G = D y G G < r ,.G +.,.n.&.G G G G G @.v < > v D D D y D > ",
"..F j j F G 6.j G d d Q { Q Q Q G G G ,.5 G G j 4 G G G ,.+.V.G +.,.@.G ] { > < < D G ,.D D > r ",
"G F j , F 6.+.0 ) t N ! @.G ) G G @.D D r D D G G D G G +.,.n.+.,.+.6.D D k b , r D G D G < # D ",
"G j d t G G G 5 @.t v G +.G { b G G D G r D G @.D G G G G w.p.+.G { ,.b ) b U * r D D v G + j r ",
"G j F 0 F ,.  Q k < G b G v { G G @.D G = 4.w.+.G G G @.G 5.G G &.,.,.j d F t 5 F G F G v < X G ",
"G F d t k < < p.d v G G G G k G G @.y D 5 n.+.G G @.{ G G d 5.6.@.,.+.j F b X y v G G b D + t G ",
"5.) t t { < b G < V G d ,.G G G G G j t { p.G G ] G G ] G F n.G ,.+.{ b v t , 0 G j j G t X j G ",
"F G 5 G G X V < G d k b ..G k G G j r j +.G ] G G G D &.j &.M.G @.@.{ j k t X d b b G G < + j G "
};
