/* XPM */
static char *b84956243abc4b51e7c69ec932ebc28dTUlgmzK3lIcLyIOx[] = {
/* columns rows colors chars-per-pixel */
"48 48 142 2 ",
"   c #514E42",
".  c #565244",
"X  c #595445",
"o  c #555248",
"O  c #585448",
"+  c #5E5949",
"@  c #635D4C",
"#  c #66604E",
"$  c #69624E",
"%  c #676152",
"&  c #6C6553",
"*  c #6E6857",
"=  c #6F6A5A",
"-  c #706753",
";  c #726A55",
":  c #746D5A",
">  c #786F5B",
",  c #77715C",
"<  c #7A735D",
"1  c #767262",
"2  c #7D7662",
"3  c #7E7864",
"4  c #837B64",
"5  c #847D69",
"6  c #887F68",
"7  c #87806B",
"8  c #8B836C",
"9  c #90876E",
"0  c #93896F",
"q  c #878471",
"w  c #8D8670",
"e  c #938A72",
"r  c #9A8F73",
"t  c #958F78",
"y  c #9C9176",
"u  c #96917B",
"i  c #9D9379",
"p  c #A19577",
"a  c #A2967A",
"s  c #A59A7C",
"d  c #AA9D7E",
"f  c #AEA07F",
"g  c #9C9681",
"h  c #9E9985",
"j  c #A59C80",
"k  c #AB9F81",
"l  c #A39D88",
"z  c #AEA182",
"x  c #AEA489",
"c  c #B3A584",
"v  c #B6A887",
"b  c #B9AA87",
"n  c #B3A789",
"m  c #B6A98A",
"M  c #BBAD8B",
"N  c #BFB08D",
"B  c #AFA890",
"V  c #B6AD91",
"C  c #B9AF91",
"Z  c #BDB293",
"A  c #BDB498",
"S  c #C2B28E",
"D  c #C4B591",
"F  c #C8B792",
"G  c #C7B894",
"H  c #CBBB95",
"J  c #C2B799",
"K  c #C5BA9B",
"L  c #CDBE99",
"P  c #D0BF97",
"I  c #D0BF98",
"U  c #C6BDA3",
"Y  c #C9BEA0",
"T  c #CEC09B",
"R  c #D3C39C",
"E  c #D8C79F",
"W  c #D7C89F",
"Q  c #D9C89F",
"!  c #CCC2A3",
"~  c #CDC4A9",
"^  c #CEC8AE",
"/  c #D5C6A2",
"(  c #D8C7A0",
")  c #D7C8A0",
"_  c #D4C8A3",
"`  c #D3C8A4",
"'  c #D5CAA6",
"]  c #D9C8A3",
"[  c #DCCBA1",
"{  c #DCCBA3",
"}  c #DFCEA3",
"|  c #DACBA4",
" . c #DBCCA5",
".. c #DCCEA6",
"X. c #D1C7AA",
"o. c #D6C9A9",
"O. c #D6CBA9",
"+. c #D6CBAB",
"@. c #D7CCAA",
"#. c #D3C9AC",
"$. c #D5CAAF",
"%. c #D8CDAB",
"&. c #DACEAB",
"*. c #D8CEAC",
"=. c #DED0A7",
"-. c #DBD0AD",
";. c #DDD1AD",
":. c #D6CCB1",
">. c #D9CFB2",
",. c #DBD0B0",
"<. c #DFD2B1",
"1. c #DCD1B2",
"2. c #DBD3B4",
"3. c #DCD3B4",
"4. c #DED6B9",
"5. c #E1CFA6",
"6. c #E1D1A7",
"7. c #E1D2A8",
"8. c #E1D1AB",
"9. c #E3D4AB",
"0. c #E5D4AA",
"q. c #E1D5AF",
"w. c #E3D5AF",
"e. c #E7D8AD",
"r. c #E9D8AB",
"t. c #E2D6B4",
"y. c #E4D7B5",
"u. c #E3D8B4",
"i. c #E6D9B4",
"p. c #EBDEB4",
"a. c #EADEB7",
"s. c #EDDEB4",
"d. c #E1D7B8",
"f. c #E4DBBB",
"g. c #E6DDBE",
"h. c #E8DDBB",
"j. c #EDE2BE",
"k. c #F0E2B8",
"l. c #E9E0C1",
"z. c #ECE3C4",
"x. c #F3EACB",
"c. c #F9F1D3",
/* pixels */
",.J ) ' u.o.) ! a.%.%.1.Y ~ K ! $.K h.h.l.o.:.q K K J L u.@.$.@.3.o.f.! U z *.f.>.3.X.C u.%.o.g ",
"D M R [ R S M G F / L F H M Z D z R D / L D H 4 J c d L N G Q / ] / F z a c Q ..b L c F R m F 9 ",
"Z H R R S b F L k n m D 7./ ] N H ] L H S m S 7 L F S D f T W R F F ( z D R D D G  .R n b S z 4 ",
"T D ..R S S M N s D H Q S F S F R M F M Z v Q < Z N m N S  .=. .R R D S N D D W a.D M M m d m 8 ",
"S r.T H S b H f F L D H M D M F R f F L c H F 2 c c M D H R ] ..( D D M H H ] 0.R F v k c m L 8 ",
"w.H F L R L c S F M M M H H F F L M ..M M Q R 7 ;.Z 6.H Q L ....I m H I L =.R v M Z a v H S R 8 ",
"T R R R R v S P M M D D F M H H F R D S ] ] ] h L R E H L R r.S R 7.F ..L L L S m S F R L R [ y ",
"T  .H T N b b S S L / D M L S S H { M H 0.] H 2 J S F v I R D D L ..L L E / M m n H L R I H H e ",
"K L D z b a M z D S N M F D M H H c v L H R ] 7 Y k a M S R H S 0.R / C F m e s I Q H d c ..[ e ",
"V ) z G b D n m F M G D F H H L L S H L H S F 4 D M F S c L b L ;.T k D D m F E H S b v L F / w ",
"D G v H S S  .G R S L N D D F L H S H R R S R 2 J H m b s R R Q G M G R L H S S F F M I S M Q 8 ",
"* ; $ & & < = O : , * O @ @ ; @ * @ & ; ; $ ;   3 : # . & 4 & @ # * ; * - $ & : ; - : % X ; : o ",
"j.j.a.K ^ A K o.a.Y @.u U d.U Z ) #.,.d.@.6.u.i.@.A X.;.%.-.j.f.! i.X.t z.>.3.%.! f.X.z.H 1.k.i.",
"D M M f c c b D n D a 1 m i c M s G F F S M F z a a c S F R T z H c F 4 n c c D n L F c b M L L ",
"N W v i m W ) a.L N D 1 ! i Z D D R R =.] S 6.R c G L L H / G b L S H ; n D c n M H M c T Q T m ",
"T J i N H D G D m R M q M z 7.=.L u.L =.L H 7.m d S H m v T M G ] L L @ D c m M H m R L F Q S S ",
"D c F D L v v F M R F 7 d H { 7./ R L r.M ] N m d F b M m D H ..H c c , M k M S D F R D / R D S ",
"Z H L L L s S F H F M 8 / =.I H R T u.] G ( [ ] b M d H H R P a 0 v c 4 m Z R L F L ] t.H k L D ",
"/ Q E S H H R T H d D 4 =.D Q R D H 7.H [ I L v c r F D s H d d L D F 4 T ] z S T T { L z L L F ",
"] S H F S F L N L L v 1 ' R R Q c 6.D R L M a D m c M d m b a ( M b L 2 m c b E r.G R N / L R R ",
"R L L [ H S k F H S D 7 E ] L S ] 0./ 7.H I H M L s c S S R S ( H 5.] 6 C D m 7.b F S T S H S F ",
"R F L H F b T N S M F 0 u.{ T Q ( H L D S M Z R c n / H R M H ( R L S : Z s H D S S b S a S S H ",
"R R S M S N H S S F R y  .b S Q F D S y G c S M M D b D H ( H Q / F n 4 m S b D b H b v b L L H ",
"; & # $ ; $ & ; 4 @ ;   < 4 < $ @ % @ ; , O @ @ % + @ < 1 ; @ ; @ + &   2 @ : * : & < @ @ & @ : ",
"f.@.*.:.o.J K T K T  .u.1.^ d.4.U ! ! :.V Z ;.8 3.K #.4.~ h.h.>.' K &.y.o.X.1.d.i.l.^ K t.:.f.l ",
"G M N S r z D c N P z F R G a v e N c z z c z 2 V c m z b ( T R M k F s m F F L S m s b H L H 2 ",
"K [ S a F H M D F P H H c c S c D L d G G T S 7 ' R L 6.s.6.H T s M F M D Z M F S M c M E L C 6 ",
"X.S F M M T T D T H b P S S b G S n D L R D N 7 X.S R R Q S T H a c [ G M H H R R b M H 0.M M q ",
"T H F b R H c S S S E R S M v L D v S ) R c m < T S H R S F b b b E R H R c R ..R S L R R S S 2 ",
" .H d S M d P T P Q T F c S M N S m M G c a L < T R 6.Q S S b S 6.c M F S L e.R L M F ] R H c 8 ",
"Z c H c S M S S T T Q z M M d ] D D D F S L R 8 F ] R b b S M P c d L R R ..R =.H R L k.H H I 9 ",
"G H S c P b P T S Q M L S c M H G S D L R R 6.9 T G b S d f S S c c S H Q L R ] H R R 7.R S D 2 ",
"V F a z m m R R Q R F L z d v 7.R F L R R R R 2 m d z D M L R S v v S R ..R I D R 7.L 5.F S R 2 ",
"A M e d H L H H M F S b d b H L H S H N S H G 1 Z N N T L R S S N S ..0.F E R M D E E R F D b w ",
"x b j m D / R D ] ] Q b H v L R 0.P S c R L H 2 K R M T G H v R R R c Q R L M G R R S L D R H w ",
"1 @ @ * ; < @ : < 4 % % . & < + $ . X & < ; ; . = * * : ; @ ; # * + X 7 * 2 ; ; : - # - * $ @ o ",
"^ ~ L ! 4.a.f.f.X.f.1.h d./ m Z M f.w.x.d.t.w.y.! ! d.1.%.X.^ ,.g.t.*.h c.1.2.>.o.L >.' o.2.' / ",
"c b R S H R E S S S R 3 k S d y L b L H M S H c s i F D b v v D R c L 6 / S c s z v M L z m m v ",
"v D m c N L R L R [ R 2 Z G m c S S Q L S b S z c T L D S F D [ n R N 5 V M H G D M H S b W H S ",
"f c z m R W M R L b S 2 Z N b G S r.T S y G M n H G N L z M S T D G L : G x D D N T R I M H S S ",
"N D S L r.S ] 0.N b L , U c m b P Q M c R M v F D D H m H D D 7.L m G 3 J D H H ..L F v F L H M ",
"s H L ) L c S T c H b & N N H L S c s S F d E H ( L H v ] ..R R a M C 5 K / ..Q H m M H M H R c ",
"S S R N v H F H S b b , Z b S d S M m M v F Q m D M c H H o.F y C m / 5 K D S m b z S b c Q E f ",
"H c b v R v v S m a m 6 J H a b H M v S R P F S v S c G D D m k F S M 5 %.I m M R b H c T { H S ",
"p s S F S v S c z y z 6 =.v D G H r F M F c S M c I n D F b c L ( 7.R 8 #.G n Q p L M b R S d d ",
"M H S S b M b v d D L e K m D F y S M M F S G S D c n s H s L ..R D M w ;.R c M S P H S R b f f ",
"H b F v M S M s S H S 2 J L M m v L S S S ] G S v / z F b S F P ( / D w ] c b S R R c H R M F S ",
": : > & : > - @ 4 : * + 2 # & & : : : : 4 4 2 @ @ - % > > < 4 6 < : 1 : 2 % ; 4 7 < ; : : , ; , "
};
